<?xml version="1.0" encoding="UTF-8" standalone="no"?>
<svg version="1.1" xmlns="http://www.w3.org/2000/svg" width="72mm" height="78mm" viewBox="0 0 72336.823 78110.757">
  <g id="Puzzle" fill="#000" stroke="none" transform="matrix(1,0,0,-1,36.817305,77399.991)">
    <title>The State of Wisconsin Maze Puzzle, by Adam Stanislav</title>
    <desc>Based on the shape seen in the bitmap http://coastal.lic.wisc.edu/wisconsin-ims/wisconsin-ims.jpg found at http://coastal.lic.wisc.edu/wisconsin-ims/wisconsin-ims.htm (the web site of the University of Wisconsin Sea Grant Institute).</desc>

    <path d="m25750 77191c0-177 2-212 16-225 12-13 40-16 134-16 94 0 122 3 134 16 14 13 16 48 16 225l0 209-150 0-150 0 0-209z"/>
    <path d="m27366 77334c-13-13-16-44-16-184 0-140 3-171 16-184 12-13 40-16 134-16 94 0 122 3 134 16 13 13 16 44 16 184 0 140-3 171-16 184-12 13-40 16-134 16-94 0-122-3-134-16z"/>
    <path d="m29076 77338c-2-7-8-31-12-53-8-36-13-41-49-49-22-4-46-10-54-12-11-4-13-37-9-184 3-130 2-183-7-190-6-5-29-13-51-18l-39-8 0-173 0-174 48-12c59-15 62-18 62-65 0-47-3-50-62-65l-48-12 0-81c0-44-5-85-10-91-6-6-28-14-50-19l-40-8-3-223c-2-156 1-228 9-237 8-10 35-14 89-14 100 0 105 5 96 110-5 58-3 81 6 87 7 4 94 8 193 8l179 0 8 44c9 55 14 60 69 69l44 8 0 79c0 44 4 86 8 93 6 9 28 11 86 6 106-9 116 1 107 107-7 87-3 94 60 107l39 8 0 73 0 74-48 12c-59 15-62 18-62 65 0 47 3 50 62 65l48 12 0 81c0 44 5 85 10 91 6 6 28 14 50 19l40 8 3 221c2 191 0 223-14 237-13 14-60 16-385 16-287 0-370-3-373-12z"/>
    <path d="m26564 77033c-14-14-16-29-10-94 5-58 3-80-6-86-7-4-71-8-143-8l-129 0-8-44c-9-55-14-60-69-69l-44-8-3-192c-3-252 3-265 131-281 42-6 20-7-70-3-169 7-168 7-159-104 7-92 3-99-60-112l-39-8-3-171c-2-146 0-173 13-187 14-13 42-16 168-16 84 0 157 4 164 8 7 4 20 26 29 47 9 22 21 43 28 47 6 4 47 5 92 1l81-6 5 48c7 57 13 63 69 73l44 8 3 122c2 93 0 123-10 126-7 2-31 8-53 12-37 8-41 12-51 54-10 42-13 45-47 48-45 4-39 22 7 22 51 0 60 18 52 104-7 81-8 78 54 119 34 23 35 24 35 93 0 55 3 69 15 69 11 0 14-9 13-35-14-192-15-231-3-245 10-12 39-15 136-15 156 0 159 2 150 111-7 87-3 94 60 107l39 8 3 73c4 103 2 104-133 99-60-3-117-8-125-11-8-4-22-2-30 4-13 9-12 12 5 22 28 17 71 60 76 76 3 7 27 19 54 26l50 12 3 72c2 45-2 78-9 87-9 11-48 14-185 14-149 0-175-2-190-17z"/>
    <path d="m25476 76738c-3-7-7-26-11-43-11-52-20-56-104-49-118 10-111 33-111-346 0-278 2-321 16-334 14-14 46-16 237-14l221 3 8 44c9 55 14 60 69 69l44 8 3 172c2 133 0 173-10 176-7 2-31 8-53 12-35 8-41 14-51 49-9 33-16 41-45 48-19 5-37 14-41 20-4 7-5 47-1 89 8 102 3 108-94 108-50 0-75-4-77-12z"/>
    <path d="m27566 76734c-14-14-16-50-14-287l3-271 39-8c65-14 65-15 59-156-8-168-12-164 150-160l121 3 8 44c9 55 14 60 69 69l44 8 3 222c2 173 0 223-10 226-7 2-31 8-53 12-35 8-41 14-51 49-9 33-16 41-45 48-19 5-37 14-41 20-4 7-5 46-2 88 9 106 5 109-146 109-95 0-122-3-134-16z"/>
    <path d="m29764 76616c-9-24 4-48 23-44 12 2 18 12 18 28 0 29-32 41-41 16z"/>
    <path d="m28794 76416c-9-24 4-48 23-44 12 2 18 12 18 28 0 29-32 41-41 16z"/>
    <path d="m26965 76234c-14-15-16-41-13-218 3-192 4-202 26-234l24-32 161 2 161 3 8 44c9 55 14 60 69 69l44 8 0 124 0 124-44 8c-55 9-60 14-69 69l-8 44-171 3c-148 2-173 0-188-14z"/>
    <path d="m23376 76138c-2-7-8-31-12-53-8-35-14-41-49-51-33-9-41-16-48-45-5-19-13-37-18-40-6-3-90-4-187-1-159 4-180 3-195-13-16-15-17-40-15-238l3-221 44-8c55-9 60-14 69-69l8-44 321-3c282-2 323 0 337 14 13 12 16 39 16 135 0 131 4 123-70 131-14 2-25 9-25 18 0 9 11 16 25 18 77 8 70-13 70 231 0 186-2 222-16 235-20 21-252 24-258 4z"/>
    <path d="m24062 75938c-17-17-17-257 1-262 6-2 30-8 52-12 36-8 40-13 53-56l13-46 72-7c40-4 94-5 122-3l50 3 7 44c4 24 10 46 13 49 2 3 26 10 52 17l48 12 0 74 0 73-39 8c-52 11-64 22-73 71l-9 42-74 0-75 0-5-45c-3-31-10-45-20-45-10 0-17 14-20 45l-5 45-75 3c-50 2-79-1-88-10z"/>
    <path d="m25076 75838c-2-7-9-32-15-55-10-36-16-42-48-50-32-7-39-14-46-46-8-32-14-38-50-48-23-6-48-13-55-15-9-3-12-23-10-76l3-72 42-9c49-9 60-21 71-73l8-39 73 0 74 0 12 48c7 26 14 50 17 52 3 3 25 9 49 13l44 8 3 173c2 119-1 178-9 187-15 19-158 20-163 2z"/>
    <path d="m26570 75721c0-56-15-77-64-90l-46-11 0-85 0-85-40-16c-62-25-70-49-70-217 0-111 3-147 14-156 9-8 55-11 137-9l123 3 8 39c13 63 22 68 98 60l67-6 24 33c20 28 24 45 22 94-2 82 4 87 96 79 113-10 113-9 109 180-3 139-5 154-26 184l-23 32-215 0-214 0 0-29z"/>
    <path d="m26287 75632c-35-39-51-144-25-170 7-7 33-12 59-12 81 0 141 74 124 153-10 42-19 47-86 47-41 0-60-5-72-18z"/>
    <path d="m25886 75614c-18-17-17-35 1-41 14-5 45 26 40 40-6 18-24 19-41 1z"/>
    <path transform="matrix(282.2222 0 0-282.2222 0 77400)" d="M85.726562 6.5898438 C 84.601717 7.5991181 80.416662 5.9223062 81.84375 7.625c-1.080893 1.0752308-4.499413 4.061534-3.349609 3.041016-0.67719 0.946973-3.359125 1.322464-3.208985 1.777343-0.588068-1.690572-0.178988-3.3939245-1.992187-0.269531 0.241214-1.776299-4.220785 3.14909-3.613281 1.697266-1.684779 0.749671-5.823482 4.51623-4.669922 2.609375-3.254014 0.422653-5.241933 2.726878-9.054688 2.138672-2.792785 1.449552-6.023946 2.280027-8.978516 3.544921-1.180204 0.224888-5.111152 0.127605-6.958984 0.128907-1.480763-1.592446-3.526775-1.383465-4.5-3.648438-2.098465 0.347588-4.175028 3.973636-4.707031 3.8125-0.183294 0.697746-4.211018 0.267294-3.052735 1.332031-0.76889 2.207547-1.133857 4.149321-1.292968 5.890626 1.535573 0.259698 3.059971 0.620834 4.582031 1.001953-1.235152-3.429549 3.497298-6.810073 7.115234-6.935547 1.009673-0.06369 2.003684 0.190798 2.958985 0.484375 3.691641 3.284524 9.328671-0.685098 12.615234 2.720703-1.384891 2.465849-7.375605 0.434742-10.457031 0.515625-3.155794-1.948252-11.743776-1.908072-9.734375 3.429687 0.118819 0.148875 0.204513 0.310994 0.291016 0.472657 3.578979 0.885551 7.180283 1.633369 10.941406 1.183593 4.791104 0.661945 14.021362 1.058078 15.125-4.300781 0.472227-5.238977 6.356796-8.667748 11.496094-8.707031 5.972744 0.104578 7.327464 7.459882 9.248046 10.99414 0.195846 6.592117 7.146312 6.369258 12.466797 7.865235 7.107879-0.149864 9.044119 7.085374 8.236329 13.074219-1.647518 8.548668 8.19953 5.694736 13.54101 6.480468 8.59194 1.925246 17.23674 0.969595 25.7793 3.339844 6.6753 1.01649 14.39913 2.9462 20.03516 4.81836 9.87443 3.821038 19.87323 8.216053 28.94336 14.042968 3.64419 4.39531 11.98426 5.748625 12.42187 11.738282 2.19934 5.58591-0.85468 11.357962-4.07031 13.005862-2.8002 2.53284-4.55659 4.70291-5.88477 8.78711-2.05176 0.17383-0.43592 0.51492-1.76367 2.19531 0.29855 0.0202-0.001 0.1998-0.0879 0.10742-0.32763 0.39112-0.80525 0.84938-1.52148 1.39258-7.04297 1.47209-4.05031 9.16736-3.95508 14.14453-0.43188 6.74211 0.43558 15.45829-3.65625 20.83203-3.52874 5.21312-17.55712 0.71113-18.19727-7.34961-7.07393-7.63258-6.12799-17.93758-6.42187-27.16601-0.76617-6.24442-5.45803-9.57632-6.68164-15.74219-5.95061-7.038366 8.36489-10.784508 4.92773-15.009767-4.68917-2.403454-8.58976-13.000636-14.43945-8.058594-5.98104 2.841761-12.88223 3.191249-18.4707 5.011719-10.12644 1.941378-21.46621 2.118213-31.220707-1.826172 C 83.099115 80.157372 81.336052 72.144827 77.210938 66.777344 74.638298 62.486466 73.765002 59.837712 72.060547 55.097656 67.785338 49.847463 60.824484 50.579126 54.923828 53.458984 46.796583 55.697175 41.201643 60.207507 39.720703 66.84375c6.165188 4.700608-2.999014 7.901884-5.947265 12.414062-5.450589 5.500983-2.858588 11.59614-1.46875 17.703126 0.3338-1.050343 0.814065-2.060914 1.472656-3.003907 0.601252-3.063462 1.721309-6.00279 2.865234-8.902343 0.510091-2.410289 2.676036-4.006894 3.53711-4.576172 1.827536-1.427751 4.741881-2.12509 6.34375-2.482422 2.138805-0.103238 3.06242-1.885914 5.761718 0.386718-1.214164-1.506651 3.296967-3.656541 1.445313-4.121093-1.482919-2.743489 3.151786-3.350253 5.853515-3.324219 0.385962 0.0037 0.732022 0.01981 1.015625 0.04492 2.920061 1.151213 6.23537 2.118225 8.935547 3.466797 2.001941 1.554034 2.779416 2.415617 3.835938 4.24414 0.491258 3.850296-2.100042 7.766005-4.884766 10.308594-2.955852 2.375494-7.555341 2.680759-10.189453 2.09375-3.133804 0.8555-8.766213-1.913524-10.208984-0.470703-0.09237-0.06843-0.26179 2.004967 0.03711 3.53125 0.319061-0.153935 0.482026 2.779475 0.9375 3.181641 0.08513 0.723134 0.636559 1.437223 1.380859 1.800781 2.830937-2.695763 4.924154-5.133391 8.714844-5.832031 3.268028-0.957859 7.147942-0.922436 9.412109-3.646485 2.666626-1.476563 7.131234-2.914688 9.904297-5.533203-0.09321-0.34554 0.04002-0.519868 0.251953-0.576172 0.154727-0.196452 0.37142-0.231387 0.507813 0.05664 0.115943 0.04169 0.226321 0.106102 0.324219 0.179687 0.204678-0.299916 0.593557-0.580125 1.259765-0.814453 1.00113 0.116079 1.995667 0.367013 2.953125 0.681641 2.550349 1.423963 5.283006 3.008831 6.81836 5.607422 0.122298 0.136786 0.253538 0.258704 0.380859 0.386719 2.081632 0.293555 4.16695 0.641961 6.21875 1.234374 3.170886 0.575997 7.464196 1.76613 11.392576 1.824219 5.56397 0.711146 11.10661-0.357596 16.66602-0.550781 4.08774-1.557117 8.71856-1.577287 12.11328 1.574219 2.78524 1.22136 6.17482 7.908224 3.08398 7.730474-1.14846 0.91073-3.61321 1.11605-5.97851 1.54883 0.33576 0.98095-0.77405 2.9437-1.62696 3.88281-0.25403 1.6255-4.56861 1.97558-2.64648 2.96094 2.56641 1.44546 1.72847 6.42343 5.53711 4.52539 2.3259-1.94631 6.13995-0.90547 5.37109 2.69531-0.33968 2.08304-1.11054 4.1482-2.33789 5.86328 3.59773 0.94733 6.91356 2.66256 9.15625 5.8457 3.11653 4.20135 1.78278 8.20131 0.44727 13.01758-1.06858 5.41209-7.55709 0.96371-11.27344 1.41016-9.99248-1.45122-19.98775-2.98403-30.06836-3.79297-6.13296-0.64349-12.135516-2.26792-18.32617-2.3125-4.624767-0.26072-9.359944 0.004-13.837891-1.50977-3.770862-0.053-11.044018-3.969-5.208984-7.2207 3.682067-2.11179 7.416477-3.71957 11.24414-5.62695-5.152617 0.18492-10.312981-0.0974-15.347656-1.16016-5.622056-1.61114-5.497493-10.69458 0.212891-12.20898 5.194754-1.96938 10.519719-4.45969 16.255859-3.99414 6.844123 0.19915 13.671119-0.27487 20.503901-0.23829 0.73463-2.96656-1.67263-5.465482-5.19726-6.583983-7.635168-1.358082-14.854406 2.512503-22.095703 4.322273-4.71762 2.33084-10.061073 2.7981-14.900391 4.66992-2.703001 1.32648-4.457603 2.79555-5.167969 5.08789-0.0094 3.47409 2.962797 6.95908 4.064453 10.65234 2.47241 3.21011 3.980998 7.17122 4.644532 11.11328-0.607656 3.46598-6.50007 0.21384-8.003907-1.96484-4.129756-2.3953-6.488173-6.8686-9.015625-10.74805-2.139665-3.58272-2.745514-7.73831-3.404297-11.72265-1.794817-4.37329 2.705306-7.15202 5.792969-9.74024-1.830179-1.183773-1.879175-3.033977-2.263672-4.597657-0.04765-1.021444-1.032977-3.683134-0.419921-4.539063-0.33816-3.067487 5.39524-2.778581 8.140624-1.699219 2.222795 0.326392 5.79235 0.23966 8.300782 0.300782 3.493974-1.00991 6.874807-2.979673 7.851562-6.720704 2.080007-2.552639 0.864743-5.065515-1.109375-6.279296-0.818249-1.323876-3.911339-1.996577-6.550781-3.041016-2.33932-2.479132-7.406927 0.170801-8.533203-0.900391 2.390028 2.479479-0.697741 5.05813-2.380859 6.791016-1.755107-0.571946-2.220272-1.223319-4.029297-0.296875-2.786865 0.473063-5.429329 1.328056-7.660157 2.867188-0.513145 0.451844-2.370011 1.942865-2.347656 3.210937-0.751301 2.673358-2.602734 5.362358-2.46289 8-1.751251 3.291839-3.268743 6.868858-2.214844 10.718758 0.575399 1.5235 0.896653 3.0618 1.11914 4.60937 1.493795 3.09459 3.521596 6.05637 4.144532 9.5625 2.128316 5.015 2.413611 10.15832 5.460937 14.5293 2.496104 2.53709 3.456953 6.29736 5.806641 9.59765 3.732381 6.21083 11.68485 5.68612 18.123047 6.75196 6.562609 0.71714 13.298518-1.85998 19.9375-2.3418 8.090968-0.41036 16.904848-1.80767 24.943358 0.9375 6.55371 1.95464 14.41574 4.48336 19.25 8.2832 2.81623-0.24392 5.68463-0.0211 8.48828-0.32226 3.64785-1.77487 7.3804-3.61219 10.52149-6.05274 2.2751-1.32977 1.44901-9.52052 4.8164-7.50195 1.43463 4.69488-0.96955 7.9635-4.39453 11.36914-3.9511 1.7946-7.40169 4.96245-11.78125 5.51953-1.40479-0.15399-2.79973-0.11874-4.18945-0.006 4.85777 5.2794 5.5806 12.82475 9.00976 19.02735 5.20776 6.47365 13.29926 10.83287 21.4961 11.55078 6.54497-0.0899 11.78192-3.60672 16.97461-7.09571-2.38057-0.91785-5.21479-0.70469-7.60352-1.80468-2.85256-0.24685-6.95668-3.516-9.01758-0.2793-2.33833 1.60681-5.23795 2.12356-7.88476 3.01562-2.80495 0.21463-8.40479 1.26482-7.98633-3.14062 0.0244-3.12507 4.21219-5.07454 2.68359-8.42383 0.008-2.84513-2.0097-6.53737-0.082-9.3125 1.74502-1.69963 4.79014-3.49391 7.10742-2.69336-0.46371-0.49732 2.13187-1.08266 3.51953-1.83789 1.97453 0.8254 4.68677-0.6827 6.0625 0.0996 2.84104 0.0384 4.73523 3.54331 7.83008 3.17773 3.8558 2.48779 4.65165-2.0799 6.60156-5.05468 2.07981-3.10659 3.79349-6.41469 4.99024-9.94532 1.76963-2.57004 2.01707-5.7578 2.43945-8.53515 0.10801-3.09799 2.35842-5.58813 3.33985-8.44531 0.83279-3.12621 2.41384-5.86823 4.18945-8.51563 2.282-2.24929 1.97201 0.93041 1.04687 2.35156 0.66818 0.0838 1.98429-0.15336 0.40625 1.71094-2.0824 2.3931-2.30058 5.70969-3.85937 8.34961-2.64932 3.56085-1.72915 8.2598-3.41602 12.19336-1.38013 2.38192-2.22059 5.01754-3.34961 7.51953-1.6798 2.57224-2.98383 5.49575-4.80664 7.87695-3.37977 0.9418 2.9684 0.37257 1.20508 1.25782 0.87429-0.13973 2.93489-2.66505 3.99805-3.97266 1.29682-1.48638 4.47155-2.5943 5.33984-4.35156-0.33243-2.49896 0.30923-5.02226-0.084-7.54688-0.23478-2.72475 0.0341-5.62124 1.00195-7.19336 0.9652-2.58973 3.43792-4.35096 3.91016-7.16406 1.59688-2.41246 1.47957-4.75572 1.04297-7.60156 1.42121-2.1865-1.12273-6.05617 2.48046-7.11719l0.41602 0.11524 0.375 0.30859c1.47424 2.4851-0.11131 5.30322 0.0703 7.83594 1.09808 3.19953-0.72798 5.82917-1.79297 8.79492-1.00683 3.08439-4.38165 5.52172-4.32421 8.7207 0.32587 3.4333-0.0716 6.89739 0.0937 10.3457 1.08682 2.86565-2.24182 3.85807-2.44922 4.43555-2.43801 1.37275-4.47214 2.93886-5.83985 5.31055-2.36908 2.41441-5.29167 2.25369-8.35937 1.50195-1.9704 1.50276 0.50268-0.43124-0.48438 0.82227-2.529 2.9718-6.01449 4.9835-9.96679 5.1914-3.5329 1.11078-6.09936-2.24851-9.2461-3.11914-3.35818 0.0881-1.77329-4.67575-4.72461-4.18554-4.6918 0.79447 0.0228 4.62429-2.07617 7.06445 1.90427 2.21118 0.82801 5.75102-0.68359 7.88086-2.22012 1.6917-0.16292 2.7642 1.80664 2.24023 2.90378-0.83297 6.57865-0.93047 8.1543-3.82422 2.81283-2.17476 6.43161 0.0959 9.50976 0.40625 2.74072 1.4129 5.79423 1.33993 8.66992 2.22657 1.05296 0.21793 2.05219 0.639 2.91992 1.22656 0.7478-0.4772 1.4976-0.94943 2.25782-1.38672 3.89334-3.45575 5.60315-6.86669 10.71093-10.99414 3.89154-5.30916 8.7978-7.32476 12.7461-11.73828 4.45026-2.60198 4.61253-10.24192 10.24609-12.2207 1.30324-1.53826 3.1963-2.90217 4.01953-4.07227-0.40055-0.57734 3.03101-1.34261 2.83008-2.08594-0.0245 0.0381-0.0311 0.0309-0.01-0.0527 0.009 0.0175 0.005 0.0352 0.01 0.0527 0.16225-0.25198 1.2404-2.81381 2.12695-3.15234 0.86696-2.26898 0.58712-3.68964 1.88868-6.26367 0.33803-0.47049 1.51334-3.83467 2.03711-5.02344 0.21877-1.85625 1.89244-3.72966 3.11914-5.04102 1.91426-1.93549 2.5613-3.0293 4.49804-4.43164 0.0167-0.003 1.37039-3.20086 1.96094-3.24218 0.19685-0.0138 0.30851 0.32337 0.25781 1.24609-0.51619 2.09871-2.18405 3.3899-3.02343 4.20117-1.33855 1.17735-2.47179 2.58554-3.68555 3.92188-1.11153 1.04113-1.94952 2.78948-2.26758 3.95703-0.72607 2.7177-1.91038 4.75076-2.72461 6.86719-0.30631 2.30913-1.12971 4.65207-2.50391 6.12695-1.29526 2.30878-1.09464 1.93873-2.6875 3.03515-1.38824-0.52415-0.46853 0.79774-2.5371 2.30664-0.99169 0.76598-1.59208 1.41919-2.15235 2.08008 7.07174 3.44304-0.98837 12.93076-0.85156 18.85352-1.6141 7.04234-3.29744 13.27373-8.17578 18.09375 1.49623 0.90936 0.0904 4.42579-0.79883 5.33789-0.6422 3.56622-3.30431 9.37219-1.12109 14.03906-1.40829 5.30324-7.30867 8.77423-7.58399 13.68555-1.03685 4.02056-1.60926 9.58001-3.98437 12.12891-2.98796 3.81079-5.8785 6.80763-10.66407 8.08007-4.08134 0.64828-10.96538 3.88624-10.12304 8.31641 3.83124 2.28043 9.23338 3.33766 12.02148-1.04492 3.03366-3.70133 8.19538-8.78319 13.00781-4.57617 6.57888 3.0034-3.97558 7.69645-4.05273 8.21484 4.75591 2.02351 10.55469 5.94239 8.5293 11.95117-2.66917 4.35553-6.02437 9.22272-11.98633 8.34375-5.31797-0.29058-9.73851 5.14767-15.17578 2.85547-4.12054-2.13583-8.42299-5.84974-8.92383-10.72656-0.0532-4.74585 1.13323-8.23845 2.13281-12.89649-4.8378-2.91916-10.33437-3.56621-15.66406-5.11718-6.36681-3.37314-13.0008-6.4082-19.70508-9.16016-2.76286 0.36238-7.31736 1.82303-12.09375 2.88867-4.54775 0.1851-7.04336-0.52719-11.42383-1.57226-5.58939-0.76569-6.76859-6.74621-7.45507-10.67383-4.83303-1.58175-9.4726-4.10323-13.949223-6.60938-5.230081-1.50071-6.228531-6.81986-4.044922-10.33008 5.209296-2.94488 9.908295 2.36557 14.859375 3.53321 6.30918 1.22513 7.18789 5.91226 7.18164 11.49218 6.00357 1.90247 12.51071 2.46271 18.32031 4.69922 6.9454 2.10482 14.18957 5.65278 21.12696 8.47266-1.43257-0.27874 3.48817 1.86902 5.00976 2.52344 4.60917 3.30112 10.40976 2.84869 15.31641 5.18554 3.70415 3.75147 3.79276-0.62563 5.57226-3.23632 3.50341-4.32304 9.44734-4.758 14.08789-7.01172 1.11896 1.68222 0.65008-1.7988 3.05664-2.58789 3.96775-3.35137 4.73612-7.5904 5.47071-12.11328 0.61814-4.33415 3.2183-8.713 6.875-12.94141 1.80227-3.38936-0.14647-7.38895 0.49414-11.23633-2.37545 2.88894-5.24606 5.45627-6.98242 8.77735-3.91665 4.50324-6.42867 10.69237-9.83985 16.67968 1.77189 11.51491-8.22845 11.63348-16.42773 14.93164-7.4022 1.01248-13.65285-3.21765-20.63086-6.29101-8.34878-5.02753-18.11179-6.5441-26.48242-11.75-8.63941-5.76719-19.23312-8.94795-26.91602-15.85547-5.655878-5.28179-13.199553-11.26995-18.587888-3.57031-1.415151 7.91068-0.200639 15.91065 2.179687 23.46093 0.854595 2.95747 2.448276 5.25802 4.470703 7.14844 1.10998-1.69045 2.767351-3.04189 4.097657-4.44726 2.399415 0.70597 3.837159-1.14125 6.714841-0.36329 2.90514 0.4992 5.19981 3.05935 4.03516 5.92188-1.35835 2.27354-4.804313 2.5864-7.189455 2.19141-1.881485-1.21786-0.465299-1.82954 1.091797-2.25782 0.118829-0.26128-0.249567-0.84487-1.40039-0.30078-1.603599-0.56349-0.962425 1.72652-1.9375 0.44531-0.625322-2.35084-2.180915-0.82386-2.96875 0.78516 5.201445 3.59215 12.116248 5.45547 17.623048 8.02149 9.01325 4.08673 17.36372 5.23836 27.08398 5.73437 10.90508-0.51244 20.75495 6.21377 23.625 16.97266 1.23765 4.65659 2.28889 12.30883 0.48242 16.68359 12.59181 0.0232 25.15284-0.0373 37.63672-0.33398 4.7121-1.34773 18.15272-4.12941 20.20117-2.59766-0.19605-3.11092-1.08256-5.96751 0.041-8.67383 0.73948-1.5763 1.33166-5.30478 1.36133-6.18164 1.10581-1.5324-2.45834-4.47463-2.10547-3.0625-1.62362-2.06914-1.54887-4.53311-1.52344-6.67187 0.65246-2.02483-2.01561-3.22438-2.32812-4.85938-0.29747-1.61316 2.06937-3.10024 0.48633-4.94922-1.82067-1.41897-0.32755-2.88581-0.28321-4.23828-0.84684-2.6234-1.7967-6.18471-0.21289-8.66016-0.60187-5.01599 4.15618-7.15139 3.55078-12.16406-0.49203-4.95505 4.68383-7.29568 3.39649-12.48242 0.75368-1.89309-0.9968-6.90768-0.57032-4.93164-0.86865-2.03691-0.77048-5.16191 0-7.62695 1.01262-2.16851 0.6298-5.31017 2.48047-7.08594-1.15232-3.39684 2.28624-4.1755 4.39453-5.98438 2.45169-2.16501 1.85637-6.0338-0.125-8.09961 0.0306-3.33138 0.96022-5.29626 1.26172-7.85546 0.78535-4.12425 0.97317-8.3459 3.33399-11.65821 1.69931-2.0183 2.32308-4.47998 3.18164-6.81836 0.54262-1.91277 0.46945-4.47288 2.48047-5.29297-0.68686-2.52813 3.0024-2.48837 3.04687-4.44921-1.166-2.05147-1.10602-7.93151 0.71289-5.44336 0.79275-1.97325 2.84236-2.90439 2.29688-5.63086 1.52037 2.36162 4.96396-1.52199 3.13086-1.12891 0.93347-1.73133 2.67182-0.8564-0.16211-2.75 1.14529-0.67552 1.37853-3.47393 1.20117-4.99805 0.94922 0.008 1.52594-4.43455 1.82031-3.23632 0.6791-2.68058-2.54526-2.8317-3.55664-1.54493-0.71578-0.68359-3.07697 3.47737-2.9082 2.76368-0.49413 4.10968-1.82851 4.29355-2.36719 4.17773-1.03042 1.15206-2.56436 1.82121-3.16211 1.69922-0.73177 2.35531-2.1979 5.89267-1.63867 5.4043-0.69049 0.78639-2.14397 2.93433-2.63867 3.66406-0.30805 2.31249-2.06476 3.90934-1.95313 6.29297-0.35406 0.0443-0.744 0.10398-1.20508 0.19531-1.77121 2.08876-4.03007 3.61168-3.35351 2.18555-0.59491 1.72489-4.14588 2.93568-4.82227 2.5332-1.37552 2.34083-3.66163 4.43948-3.75586 7.02734 0.52883 0.76168-1.78871 3.07298-2.67578 4.01368-2.24885 0.3818-3.48139 1.62477-5.03711 3.52929 0.20634 0.97977-0.73912 3.9384-2.5664 2.81445-2.65792-2.04609-3.72281-0.1886-1.3711-2.91796 0.26644-1.07304-1.48933-5.68069 0.49219-2.32032-0.86094-1.32249-1.10536-5.09734 0.53906-3.23046-0.33108-2.04921 1.48377-4.19696 2.65039-5.81446 0.0769-2.1588 1.50585-3.10284 2.83399-4.60742 1.39017-3.06606 1.70424-5.55427 1.04297-4.96094 0.93855-2.03895 4.03-1.63734 6.23047-2.04883 4.10443 0.70512 8.01964-4.4636 4.04492-6.05664 0.35785-3.22323-4.27611-1.72116-4.6211-4.67773-1.65766-0.97061-3.29176-2.56578-1.73632-4.22461-0.13601-3.38694 2.98628-5.1758 2.83593-8.67383-0.8743-2.259663-3.6349-2.185919-4.55664-0.0781-0.79039 0.33158-3.98013-0.89932-4.59765-0.43946 0.18925-1.527027 0.40726-5.04987 0.4375-3.878905 2.65922-1.454298 2.86854-4.441801 1.46289-6.966797-1.63497 0.330459-1.8688-5.762054 0.85351-3.951172-1.31504-1.100491-0.19922-3.176055 0.30664-3.886719-0.88221-1.522994-3.50386-4.117303-3.61133-3.757812-0.99547-2.489646-4.66107-6.399415-5.22265-2.941407-1.84978-0.432166-5.71343-3.060821-4.94922-0.361328-3.71268-0.271357 3.73913-3.746935 0.56445-4.638672-1.49868-0.799267-4.17127-3.106012-1.66797-2.835937-1.5779-0.777692-6.13464-1.632809-4.8789-1.56836-1.19318-0.904776-6.32174-3.320031-4.83008-1.230468-1.36261-0.850572-4.94586-1.662409-5.7207-1.546875-1.79195-1.176428-9.29982-0.02045-3.5586-0.44336-4.23068 0.894257-2.44843 1.976334-5.10547-0.169922-3.92622-0.773213-4.19872 0.01686-5.63867-0.511718-3.10102-2.592777-6.63212-3.475953-9.91015-6.007813-3.67201-1.302187-7.40437-2.078192-11.14063-3.048828-4.58233-1.222214-9.37929-2.607507-13.99219-3.896484-4.67264-1.212563-9.19086-2.536317-13.85742-3.75586-1.41779-0.814844-4.88345-0.520816-4.34765-2.222656-1.37371-2.565999-2.07319-5.559586-3.75196-8.017578-2.40336-3.045576-1.30824-0.08537-3.42383-2.320313-1.08399-0.71696-6.46361 0.96848-4.44726-0.847656-0.38756-2.186575-5.463403-4.663837-4.25586-3.033203-2.478705 0.890008-3.830385-0.851801-5.605468-2.488281-2.029564-1.70004-4.720177-4.081398-5.732422-6.015625-3.03211-1.02997-0.320771 1.998927 0.914062 3.236328 0.130472 0.760975-1.958155 3.787969-1.470703 2.638672-2.351976 0.509099-4.223544 2.257297-6.142578 2.472656 0.159828-2.171565 2.421458-4.204274 1.980469-4.125 2.802437-0.934328 0.727302-3.772382 0.697265-5.363281 0.616175-1.353807 2.629768-3.78294 3.207032-4.242188 0.196003-1.977891 0.393851-6.1598722 1.248046-5.5957029-1.081546-1.2604527-2.512902-2.5813708-4.4375-3.1777343z m4.4375 3.1777343c0.09175 0.1069249 0.198641 0.2147402 0.285157 0.3203129 C 90.345917 9.9177995 90.252555 9.8260238 90.164062 9.7675781 Z m-1.248046 5.5957029c-0.01013 0.102216-0.02104 0.266469-0.03125 0.355469 0.265146-0.443692 0.231374-0.51468 0.03125-0.355469zM214.81445 82.40625c0.0124 0.02133 0.0333 0.04746 0.0449 0.06836 0.29839-0.457464 0.18129-0.386162-0.0449-0.06836z m7.1875 51.34961c0.19172-0.32626 0.36587-0.65843 0.51367-0.99609-0.64482 0.54191-0.74113 0.86074-0.51367 0.99609z m11.33399-11.20703c0.002-0.0122 0.006-0.0229 0.008-0.0352-0.27625 0.42945-0.21361 0.33872-0.008 0.0352z m4.27734-9.06836c0.14652-0.4716 0.27371-0.90946 0.33789-1.24219-0.72384 0.78308-0.71246 1.16574-0.33789 1.24219z m-18.87305 157.83789c0.0225 0.35643 0.0409 0.71285 0.041 1.07617 0.33139-0.48466 0.28457-0.83271-0.041-1.07617zM190.26367 115.99414c0.0309-0.0368 0.0598-0.0718 0.0879-0.10742-0.0379-0.003-0.0347-0.0159-0.0957-0.0117-0.0238 0.063-0.0131 0.0968 0.008 0.11914zM30.810547 22.457031c0.02345-0.08927-0.0073-0.194381-0.128906-0.326172 0.0079 0.199989 0.05327 0.302044 0.128906 0.326172z m40-0.824219c-0.503135 0.01122-1.041018 0.112224-1.615235 0.320313-4.992073 0.325962-7.260608 5.840887-7.949218 9.662109-6.252623 5.147842-15.374688 3.641961-22.40625 2.845704-1.326742-0.226875-2.937007-0.448662-4.591797-0.697266-0.239492 3.119449-2.439887 6.759201 0.164062 7.412109 0.436862-1.037657 6.373993-0.733545 8.994141-1.433593 4.620267-0.215986 8.743748-3.520567 13.783203-3.501954 5.037963-0.345107 9.762931-6.720668 14.271485-1.755859 1.195296 3.805619 5.048325 5.582511 7.703124 8.552734 2.827821 0.02768 5.871984 2.788197 5.207032 5.244141 0.05759 0.03725 0.116539 0.05865 0.173828 0.09961 2.248678 1.840398 4.534411 3.760717 6.947266 5.50586 2.004529 2.125215 0.6058-0.499416 0.464843-1.916016-1.04805-1.582604-1.527446-3.723195-1.353515-5.697265-0.477457-2.378711 1.870949-0.999178 3.052734-1.289063 3.402206 0.867568-0.03413 2.677231-1.117188 3.203125 0.306603 0.0268 0.424139 0.799344 1.03711 1.484375 0.161433 2.388086 2.869007 4.244913 1.566406 6.566406-2.109515 0.110427-2.734008 2.299337-2.466797 4.050781-0.167953 2.205348-0.999497 0.437616-1.890625-0.310546-1.073675 0.872142-0.472622-0.0075-0.439453-1.435547-0.316658-0.670302-3.910012 1.351903-3.322265 3.113281-0.557487 2.530612 1.451484 4.792992 2.496093 6.521484 0.768239 2.44468 2.43228 3.449937 4.91211 3.744141 1.985949-0.637455 2.366356 1.910837 4.078125 1.693359 2.625394 0.273094 5.161924 0.566024 7.693354 0.964844 3.11088-0.646455 6.30744-0.672233 9.46876-0.408203 2.79232 0.835671 5.67893 0.05603 8.5039 0.472656 1.54095 0.595279 4.32911 0.630274 6.3086-0.04297 1.20743-1.146258 4.50177-2.786093 3.24218-4.169921-2.8728-0.02304-5.74626-0.05295-8.61914-0.02539-2.43198 0.108613-5.14952-0.05089-7.18554-1.013672-3.5611 0.250962-7.15461-0.0569-10.72852 0.128906-2.6829-0.188493-5.27026-0.755637-7.968751-1.175781-0.0036-0.453178-1.774866 0.07138-2.927734-0.642578-2.475503-1.02622-3.94681-2.625342-5.738281-4.064453-1.625372-2.611148 2.495065-2.07076 3.146484-0.339844 1.952242 2.080315 4.778438 2.816525 7.527342 3.046875 2.76775 0.377646 5.25346 1.037006 8.08594 0.818359 2.74855 0.07859 5.49843-0.07584 8.24023 0.02734 2.63013 0.764132 5.46485 0.996871 8.23047 0.908203 3.05695 0.247926 6.33569-0.513335 9.25196 0.394532 0.82949 0.460664 1.27776 1.206557 1.4082 2.017578 0.48704-1.384169 3.60667-1.220083 4.95898-1.208985 1.20167 2.09013 3.61395-0.145297 5.67578 0.632813-1.18451 0.06299 4.64189 1.519434 3.88086 1.707031 5.86048 1.600016 11.34947 4.230808 16.81641 6.832031-0.92461-0.444224 2.9837 1.115259 5.22266 2.492188 4.38984 2.116049 9.41701 3.179905 13.00586 6.650391-2.17603-3.132507 4.03615 3.39845-0.14844 6.789062-2.15968 3.175898-1.69289 6.851883-2.55078 10.369143-0.20656 0.73648-1.81692 7.06548-2.08594 9.66992 0.43685-1.84466 0.11034 4.57625-4.29102 7.56836-2.64412 2.59731-2.30619 6.51128-3.03125 9.84766-0.96874 4.0386-4.68091 0.98203-5.32422-1.54492 1.46633 2.29537-2.5193-4.81504-3.14648-6.88477-0.33819-3.58142-1.37973-7.0016-2.8457-10.26758 1.42677 2.47931-0.93853-5.22668-0.47656-7.71875 2.45274-2.25382 1.95575-4.96985 0.91992-7.767579-0.58814-3.291657 3.22397-4.296567 3.73047-7.216796-0.0733-0.08016-0.0612-0.291927 0.0586-0.679688 0.002 0.23893-0.0211 0.463484-0.0586 0.679688 0.49656 0.543083 4.98713-5.069945 7.55273-4.63086 3.89051 0.51098 4.04022 5.627621 7.33984 7.091797 1.16708 3.761823 5.04728-0.557593 3.61133-2.859375-2.36479-2.475181-5.54398-4.133019-8.63086-5.595703-4.83629-1.779605-9.66721-3.609582-14.26367-5.962891-4.5861-2.362045-9.60093-3.660263-14.27148-5.826172-0.24068 0.362948-8.42426-0.346126-11.47461-0.853515-0.0702-0.148011-0.11714-0.282698-0.15625-0.414063-0.12678 1.110211-0.78772 2.19304-1.85157 2.720703-2.04835 2.265187-4.86386 3.701379-7.97851 3.242188-2.60345-0.547512-5.04288-0.584378-7.73242-0.511719-3.1696-0.0967-6.29739-0.955097-9.51953-0.351562 C 106.00439 77.40476 102.55844 76.21527 99.25 76.015622 96.463058 76.90265 95.278109 74.07941 92.900391 73.867185 90.073707 73.844335 88.651768 71.678136 87.53125 69.464841 86.593273 67.064803 84.411022 65.197013 84.630859 62.4082c-0.599095-3.42258 2.46499-5.38076 5.142579-6.587891 0.0062-1.490976-4.545079-2.866297-4.464844-4.136718-0.371306-0.227222-1.299914-1.020619-2.337891-1.56836-0.07274 0.05163-0.128332 0.107997-0.207031 0.158204-2.325604 2.332861-6.152276 0.281197-9.689453-1.050782-3.832218-1.701344-8.14409-2.788921-12.59375-2.789062-4.492758-0.668651-10.467827-2.601598-14.103516 0.886718-2.162261 4.503346-8.997603 4.578772-10.175781 9.300782-1.961998 3.644217-6.018494 6.500492-5.580078 10.728515-3.272435 2.194867-2.129934 5.828737-5.451172 8.310547-2.439319 3.530353-6.255313 4.40742-10.041016 5.369141 1.525723 1.626945 6.64719 5.772426 5.867188 10.314453 0.663223 4.603979 1.668013 9.245783 0.414062 13.898443-1.224957 3.8015-1.893013 8.09703-1.789062 12.23437-1.121425 4.14943 1.903153 2.07449 4.550781 3.91211 6.066201 1.26709 4.992513 7.15017 4.527344 11.69336 0.81627 6.60878-6.489363 2.61877-8.837891 4.05274-4.351582 0.90573-7.427832-3.34835-9.394531-6.49415-2.8198554-5.60166 4.950788-4.85072 8.337891-4.91406 3.636167-0.87205 1.965108 5.20082 0.599609 3.03321-1.669727-1.65182-9.9606788-1.02574-5.974609 2.51171 2.597374 4.98465 6.521392 2.89891 10.175781 3.20118 3.865152 2.44241 2.126993-1.34761 2.984375-3.83789 1.992687-4.32579-2.137385-7.64823-6.107422-8.20313-5.697843-1.36986-2.56026-8.68596-2.53125-12.77148 1.003768-4.75012 2.752156-9.60452 1.248047-14.492194 C 18.840611 90.971141 18.685687 84.63117 13.5 83.65625c-5.3712791-1.339476 0.899828-5.746941 3.966797-5.775391 4.376252 0.534877 4.794297-4.696053 8.705078-6.375 4.5459-0.935284-3.926584-1.348453-0.07031-3.435547 4.163344-0.493431 0.636217-3.671655 3.015626-5.386718 2.893267-3.352118 4.781066-7.371051 7.460937-10.826172 3.758333-2.0745 7.314122-4.351818 9.878906-7.753906 5.799636-2.327656 12.087261-0.241274 18.025391 0.404296 4.197933 0.265855 8.137808 1.665219 11.615234 3.853516 0.285035-0.211899 0.580827-0.281603 0.88086-0.27539-1.15424-0.549021-2.313038-1.094514-3.50586-1.564454-1.5066-1.356328-6.839258-2.952936-4.441406-5.365234 1.010941 0.06193 1.720752 0.969419 2.582031 1.419922 1.966989 1.734576 4.455058 2.489259 6.779297 3.585937 1.10643 1.015422 2.339285 1.099269 3.582031 1.294922 0.687325-2.078889-5.963889-1.574482-6.449218-4.861328-3.710949-1.728347-4.190697-5.972123-7.595703-7.46875-3.497883-0.07056-7.762985 3.514053-12.046876 3.644531-4.855512-0.0056-8.682575 4.175578-13.408203 3.38086-4.011598 0.456229-7.997985 1.626228-11.488281-0.419922-4.911922-2.109838 4.734696-5.394842 0.603516-5.644531 0.06335 1.058931-0.612145-0.158507 0 0 1.097547-1.044483 0.284106-1.895364 0.259765-2.712891-1.970451-0.357209-3.904209-0.806525-5.476562-1.462891-0.01069 3.092116 0.457225 5.500835 0 7.59961-0.611017 6.074451-0.596691 12.651275-0.701172 19.126953-2.850191-0.540425-1.515395 5.275597-3.972656 2.855469-3.240061-1.252347-2.66749 4.612277-5.314453 2.125-1.712612 0.77771-5.63205 3.022578-3.808594 2.800781-1.445877-0.0069-4.3531338 2.657783-4.9804689 3.240234 C 6.5186758 70.952806 5.561189 75.766685 5.5742188 74.144531 4.8606714 75.29072 4.5864349 77.367437 2.8886719 78.1875-0.19153072 79.024734 0.29028103 83.253199 0.16015625 85.925781-1.2849303 89.368767 3.0355834 89.72508 4.84375 89.251953c2.4954174 0.876908 1.3333502 4.189539 3.4902344 5.542969 1.1166534 1.011685-0.7184736 6.027128 0.578125 4.292969-0.936752 1.278499-2.3240004 2.380589-1.9882813 3.867189-2.7185814 3.62185-2.8262352 0.21769-2.4765625 4.32226 0.4757227 2.75921 1.7122172 10.71439 0.3476563 7.84375 0.7264549 1.97296-4.77519787 2.50309-1.90625 5.1211 1.4022288 2.09995 2.167987 10.09811 1.1894531 7.49023-1.72637 1.08602-2.3651623 6.98098-1.8261719 7.42383-2.14617501 2.03142 0.9010505 4.23493 2.5820313 5.10547 1.5575625 1.13242 2.3237102 3.20866 4.2050781 4.13867-0.9146318 3.31886 3.5902485 1.70001 3.0039065 4.53125 1.678166 0.47575 7.55081-0.16747 5.496093 0.43555 1.6125 1.18118 5.402355 0.10282 4.978516 3.32031 0.128272 2.62443 3.331775 4.21555 5.388672 5.14844 2.312984 0.13607 3.519761 1.50877 5.630859 2.26758 2.220063 1.67378 6.007498 2.47082 4.939453 6.46875 2.505973 0.94676 0.341502 4.95098 3.207032 6.28711 1.279846 1.09861 2.723657 2.12298 4.414062 3.05468 0.986329-0.83464 8.340044 14.42021 3.699219 3.86914 1.725786 0.90396 2.57038 3.25583 5.011719 3.06836 2.293742 0.41615 4.857259 1.0311 5.65625 3.6543 2.162282 0.49773 1.619694 3.42239 3.853515 4.66602 0.938683 2.66527 2.565637 5.20966 2.101563 4.95312 1.615383 2.64611-1.282474 5.67766-0.53125 8.79102-0.612758 2.58585-0.887774 8.34606 0.919922 6.26562 1.284027 1.4861 0.890083 4.58989 0.71289 5.51758 1.146246 2.07647-0.100058 8.11813 0.705078 5.90625 1.737355 1.58126 4.7144 1.93336 5.708985 4.4668 2.25372 2.04482-1.231202 3.54644-2.173828 5.39648-0.776459 2.47602-1.644378 10.29276-2.330078 6.94531-0.03191 3.40489 1.538553 6.86618 1.65039 10.55274 2.721809 0.49473 1.135455 3.47471 2.445313 4.63086 0.05079 2.43623 0.520759 4.96104 2.294922 5.94922 1.895531 1.03017 2.990127 2.86335 5.492187 2.91601 2.499679 1.64393 6.073071 1.24287 8.869141 2.82813-0.283252 3.03115 2.667146 3.67304 2.548828 6.6289 1.482615 1.74405 13.949638 1.36377 10.527348 1.13867 18.62193-0.0771 37.31737 0.14011 55.94921 0.18555-0.13215-8.74258 0.87831-18.12999-6.11328-25.29102-7.03836-7.49129-18.25385-5.68098-27.53711-6.95117-9.26658-1.5196-20.73562-6.49928-30.884762-10.99218-1.208825-0.44968-2.309629-1.02601-3.332031-1.6836-0.285863 3.32174 0.178903 6.69059-0.552735 9.97852 0.114445 0.0147 0.23116 0.0115 0.34375 0.0371 0.589043 1.55025 2.931969-0.48724 4.169922 1.09179 0.747528 0.0802 3.069036 0.60651 4.582032 1.2461 1.578154 1.22963 3.298454 0.29087 5.048824 0.40039 2.03511-0.025 3.90998 0.86157 5.51172 2.06445 1.51549 1.41252 3.41368 1.36326 5.48242 1.2793 2.00897 0.52708 4.04544 0.92607 5.50977 2.62695 1.40496 1.57155 2.47509 0.89928 3.98438 2.1836-0.0845-0.2149 1.7798-0.5439 2.64648-0.0547 1.95863 0.71061 4.03841 0.0674 6.06641 0.30078 1.51807-0.43315 2.6446 0.33668 3.15625 1.48437 0.75689-0.82643 0.60301 0.58906 0.27734 1.01954 0.0507 0.433 0.0286 0.88175-0.082 1.31835 0.53423-0.35163 1.93378 1.44347 2.62695 0.29493-1.49476-0.75618-0.26652-0.27345 0.64844-0.15625 1.72995-0.91561 3.87954-0.56425 5.73633-0.0508-0.0912 0.0452 0.20717 0.40984 0.63867 0.76172 0.0565 0.002 0.14495 0.0282 0.12109 0.082-0.007-0.002-0.005-0.002-0.0117-0.004 0.34987 0.2686 0.75812 0.51909 1.14844 0.58203 2.04067-0.005 3.15035 1.5978 3.87891 3.61914 1.07823 2.13896 0.0993 4.47921-1.07032 6.33984-1.11674 1.77446-2.2028 4.09092-4.58593 4.17579-1.57515-0.0139-0.87186 1.87254-2.20117 1.00195 0.32503-1.4414 1.54857-4.45093-1.26172-4.09961 0.23389 1.12928-1.87773 0.21489-3.05469 0.16211-1.66352 1.02545-2.7723-1.94983-4.95508-2.2461-2.48553 0.30749-4.82861 1.61327-7.40234 1.59766-3.77298 1.20706-7.30942-1.471-11.07031-1.18945-2.55564 0.35471-5.42017 2.14317-7.84961 0.39844-2.15264-0.48231-4.38121-0.50635-6.57618-0.4336-2.02738-0.29222-3.03512-2.69284-3.732418-4.41797 0.385412-0.21819 0.05468-0.5753-0.503906-1.32812-0.0055-1.38492-2.449855-1.51405-2.353516-3.43164-0.328905-1.60203 0.883462-2.61183 1.53125-3.80664 0.01376-0.1757 0.03252-0.35448 0.04102-0.52735-0.121231-0.36415-0.149939-0.77076-0.02148-1.17383 0.04744 0.37341 0.04135 0.76971 0.02148 1.17383 0.02585 0.0777 0.0674 0.14575 0.101562 0.21875 0.159743-0.36693 0.268093-0.75103 0.238281-1.18359 0.77833 0.0156 1.56108 0.44031 2.144532 0.94727 0.03032 0.0218 0.04823 0.0444 0.07617 0.0664 1.277525-1.26657-0.494274-1.63106-1.642578-1.24219-1.614245 0.24161-0.128231-3.20321 0.792969-4.34375 1.631124-1.67989-1.231052-1.47278-2.380859-2.11328-1.828389-0.50867-3.593891-0.97985-5.515625-0.76172-0.137602-0.12433-0.287311-0.21624-0.44336-0.29296-0.315313 1.89881-0.985899 3.72866-1.894531 5.43554 0.01617 3.28531-4.470107 3.23408-6.738281 2.35547-0.1499-0.20856-3.586575-3.62555-1.169922-2.93164-1.572537-1.35121-2.831436-3.06652-3.095703-5.13477-0.72005-2.24928-1.097793-5.67409 0.929687-7.26953 2.325505-1.2523 1.668629-4.5614 0.945313-6.16015-0.905347-2.33895-2.136819-4.56887-1.875-7.14258-0.187983-2.47511-1.92063-4.26238-3.498047-5.87891-2.065543-1.72705-2.733338-4.83317-3.367187-6.84375-0.590936-2.72786-0.789774-4.75578 0.04883-7.25586 1.386871-2.32413 3.042991-4.60746 3.826172-7.05859 0.131181-2.32733-3.143154-5.17054-0.759766-7.11523 1.785958-2.39581 4.709716-4.07298 4.503906-7.34376 0.388361-2.89369 3.557717-4.59579 5.994141-5.46289 1.743105 0.36147 2.637253 2.73851 3.425781 4.1836 1.475107 1.30132-1.984785 5.96665-1.292969 2.91992-0.30865 1.61214-1.555745 3.75203-3.755859 3.48242-2.483894-1.57388-3.535161 1.03134-5.16211 2.63867-2.034185 1.44484-0.965753 2.49943-0.490234 4.10547 1.286462 1.44951 0.684471 4.75808-0.65039 6.43164-1.028102 1.83661-3.349038 4.73106-2.97461 6.00977 0.180879 2.67288 0.308758 4.50986 1.183594 6.54492 1.193031 2.82618 4.174698 4.48293 5.304687 7.44727 1.620631 2.44456 0.02438 5.67203 2.058594 7.63671-0.1876 2.54485 2.188314 4.11019 1.394531 6.67969-0.231498 2.15665-1.825796 4.24961-3.070312 5.43164-0.225082 2.82747 0.871053 5.20265 2.609375 7.39258-0.214505 0.80698 1.148909 3.27798 0.619141 1.99024 1.705692 0.24503 3.428645-1.55699 2.921874-2.44141 0.299486-0.89345 0.547714-1.81709 0.751954-2.75195-1.017138 0.0605-1.961444-0.0579-2.541016-1.10938-0.234455-1.79858 1.31921-2.10797 2.939453-2.2168-4.62e-4-0.45782-0.01646-0.91617-0.07031-1.37695 1.120225-3.55465-0.234624-7.41097 0.939453-10.95117-3.877815-3.72109-6.020743-8.91275-7.007813-13.49219-1.822163-7.06071-1.625315-13.17505-0.880859-20.30078 8.458555-12.0157 20.774191 1.66203 28.560551 7.2207 13.80613 6.95265 26.83648 15.85245 41.82226 19.95899 9.65388 4.30577 18.58868 13.01392 29.39063 6.87305 8.03881-1.06623 8.93853-5.751 10.13672-12.94141 3.79581-7.39593 7.72634-13.48988 12.47656-20.46485 6.62699-3.21293 5.51919-11.30105 11.03516-15.9121 6.10086-6.5729 5.572-14.49826 7.95898-22.75391 3.00023-3.34983 2.45101-7.06347 0.81445-8.03125-0.10883 1.98258-0.78905 4.37602-2.71875 5.94141-1.84384 2.33837-1.4342 4.91618-2.79687 7.39843-1.21402 3.44578-2.08626 7.20303-4.69727 9.83789-1.54934 2.34457-5.86039 4.81474-8.82617 6.8125-0.30808 0.24526-0.65879 0.50836-0.99219 0.76172-0.17618 0.48183-0.32063 0.97991-0.33789 1.49414-1.60676 3.97478-2.36566 8.40078-6.36718 10.92578-1.11348 0.57232-2.21828 1.19242-3.33008 1.79883-1.94753 2.41078-4.12107 4.66628-6.53711 5.59571-3.08171 1.27212-3.66638 2.26478-7.02735 3.55078-4.65683 2.45103-9.01328-1.08149-13.70703-1.20703-0.64954-0.14617-1.30812-0.29969-1.96093-0.44532-0.56331 0.23066-1.12862 0.45361-1.68555 0.71289-5.12559 1.91201-11.33842 3.32131-16.41016 0.46875-3.09195-1.70634-6.54011-4.36554-7.51367-7.30859-0.45829-1.20209-0.6375-2.3642-0.75195-3.50391-4.78733-2.11225-9.50094-4.47008-13.92578-7.22851-5.40753-2.34625-9.68065-6.40329-14.57813-9.56055-4.01527-1.31985-12.782382-7.98228-5.89453-11.10547 3.76846-2.64036 8.60026-0.8533 12.86523-0.95117 4.19654 0.97685 9.06559 0.23403 12.35547 3.6875 4.6268 5.23087 7.63918 11.90419 8.99414 18.72656 0.42051 2.26398 1.22363 3.55904 1.40039 5.61524 7.53997 5.13976 16.45202 7.48336 25.31055 9.26758 3.11243-1.24013 6.21803-2.51644 9.57227-2.76172 4.01521-0.79772 8.74479-1.26736 13.11133-1.86328 1.99486-0.77371 3.76143-1.51879 5.52734-2.45899 0.93153-1.11817 1.82429-2.2728 2.71094-3.39844 0.73242-0.87762 1.21778-3.22057 1.61718-4.1875 0.94038-2.8561 3.09927-4.87056 5.54102-6.60547 0.55553-2.1461 2.32953-3.558 0.33398-2.22265 0.14438 0.0918 0.12798 0.16988-0.3457 0.22851 0.15054-0.10211 0.22456-0.14745 0.3457-0.22851-0.40429-0.25717-2.1505-0.63433 0.71289-1.08203 1.09325 0.46735 1.08403 1.19417 0.77344 2.07422 1.56225-1.00455 3.15026-1.95395 4.54883-2.96875 2.66169-2.03849 4.74391-4.0645 5.62891-6.32813 1.74934-3.24787 1.74504-5.43972 3.46875-8.67969-0.20745-1.95893 1.66035-5.63116 3.43945-7.20898 1.28229-1.3019 1.14481-2.6085 0.99609-3.81836-0.86792 0.14671-1.84497 0.93762-2.73047 2.65039-1.74453 6.40251-7.15008 10.7876-12.63281 14.04883-3.02562 4.35798-8.72463 8.91656-12.06445 11.85742-1.39067 2.82912-3.56697 4.81094-6.03711 6.49023 0.82053 1.14947 1.26535 2.5547 1.12109 4.11915-1.53821 2.90462-2.92595-0.33281-4.15625-2.24415-2.5718 1.48675-5.23942 2.88829-7.5664 4.69336-6.43763 5.19434-16.72602 2.18258-21.13086 0.95899-7.93261-3.85156-16.36145-10.23876-17.21094-19.58985-1.37548-4.16023-3.66568-7.85345-6.61914-10.74804-3.49478 0.47974-6.96963 1.06808-10.47656 0.2539-6.82594-2.02861-13.98435-1.14726-20.95313-2.2207-5.904576-0.42299-11.91149-2.86926-17.783204-1.67969-4.493925 0.62784-10.19587 1.8204-11.958984 6.60157 4.37035 2.05468 8.865118 3.83822 13.597656 4.90039 4.674073 1.28815 7.435122 5.34454 10.892578 8.5664 0.850802 2.93455 7.320454 3.45617 9.281254 6.65821 4.45284 3.55875 10.70393 3.91752 14.58203 8.30468 3.00804 2.04773 8.3152 5.35058 10.86914 6.36133 0.0619-0.012 0.0971 0.0158 0.13281 0.0488 0.19007 0.0717 0.40369 0.16193 0.55664 0.20312 3.04322 3.67502 8.29908 4.79015 12.67774 6.41993 5.20704 2.48215 9.93678 5.02233 15.50195 2.07422 2.77898-3.25117 7.13542-0.0422 10.70703-0.25 4.0379 1.02212 11.80368-1.37565 12.07422 4.52734-0.96305 5.37331-5.49321 9.24644-11.38281 8.27539-3.00427-3.41675-8.1202-4.20267-11.48242-5.02734-1.84294-0.75101-8.12929-2.09488-6.13281-1.64258-2.60273 2.84614-6.98453 3.13953-10.4961-0.21485-4.9523-1.52192-9.09712-5.11405-13.65039-7.1289-0.12266-4.74712-3.30135-6.77815-7.48242-8.60352-4.25823-2.81581-7.97288-6.37651-13-7.75976-4.4855-1.30177-8.03303-6.2725-11.910161-7.19532-4.165881-2.28658-6.281901-7.35577-10.509765-9.80273-3.161948-1.00685-6.391424-1.90324-9.574219-2.98438 0.05169 0.0883 0.113739 0.16389 0.158203 0.26172 3.529039 4.212-0.978003 11.69342-6.271484 9.25196-4.747855 1.25917-9.764967-0.0397-12.761719-4.07032-3.243954-5.03483-9.135092-7.12761-13.417969-11.09179-3.794382-2.06527-5.827203-5.83274-8.167968-9.26172-1.169513 3.26984-6.799589 2.14519-4.201172-1.38672 4.904796-2.62286-3.684342-4.28892-2.789063-7.10352 1.156173-3.92447 4.80156-5.9215 8.369141-6.25l0.916015 0.17188c2.629372 2.88941 3.433519 5.97605 2.84961 10.07227-4.745782 2.33809-0.278076 5.34723 1.486328 8.35351 4.609258 4.44485 10.405616 7.41347 15.080078 11.73047 2.698438 3.67592 6.84077 7.74701 11.744141 5.43164 3.39987 2.33378 6.947663-1.17362 4.21875-4.42773-3.284808-0.39265-8.072397-1.28669-6.275391-5.72852-3.17697-1.49758-6.430822-2.82788-9.730469-4.06836-3.541312-1.51745-11.009651-3.78169-8.376953-8.49219 1.50451-0.14327 4.068102 3.29944 3.871094 3.03711 3.863838 1.99964 8.024978 3.35823 12.085938 4.87891 1.017088 0.52768 2.046896 1.03583 3.074218 1.54883 1.413314-3.3909 4.755114-5.76739 8.195313-7.09571 4.070264-0.6767 8.044838-2.2833 12.21289-1.52734 7.476244 0.94303 14.852294 2.74515 22.441414 2.60938 5.74753-0.29839 11.1868 2.33133 16.91211 1.87109 0.27098-0.0906 0.54528-0.14971 0.81835-0.22266-0.75391-0.50242-1.53236-0.96462-2.33984-1.37304-7.00511-2.82173-14.25212-6.03592-21.41601-6.69727-9.261245-0.39433-18.765086 0.6721-26.619149 2.00586-7.333551 2.02729-13.850218 0.84777-21.0625-0.62695-7.442015-1.41165-10.418016-6.58218-12.871093-12.51758-4.231751-3.89231-5.459302-10.46348-7.623047-16.14258-0.351232-1.72858-0.920031-3.37775-1.580078-4.99023 0.440923 2.15333-0.499562 4.64109-0.939454 5.68945-0.7323 1.12004-0.669843 2.06448-1.445312 3.92383-0.27163 3.4466-0.436767 5.94106 0.869141 7 1.579885 0.43465 1.761536 2.95169-0.263672 1.78515-2.446046-2.44803-2.598216-3.37233-2.115235-7.56054-0.09887-2.19515 0.772993-4.05924 1.458985-5.52735 0.481354-1.0791 1.489892-4.52378 0.611328-5.72656-0.517444-1.51096-0.452877-3.12773-0.501953-4.75195-2.001391-4.30717-3.775632-8.62167-2.886719-13.712894-5.809272-7.569861-1.284861-18.420734 5.445313-23.640625 8.038669-2.942281-0.62342-3.870774 2.421874-10.185547 3.038255-3.633009 4.532905-9.609218 12.025391-10.388672 8.020085-4.293602 17.729159-6.907098 23.705078 0.966797 1.417004 4.606718 3.485358 9.64166 6.71875 13.960938 2.642191 6.146922 6.79925 11.907019 13.777344 13.367187 7.807648 1.856481 18.083698 2.422044 24.697268 0.666016 7.93879-1.498624 16.67158-3.046779 23.49219-6.830078 5.53756 2.398663 16.22809 9.284185 14.76953 15.410156-8.62441 3.619811-6.65957 11.042262-2.6875 17.673832 4.76675 6.23696 5.13256 14.21802 4.08398 21.74218 0.1411 7.00663 5.84999 12.10137 7.97266 18.08594 3.13906 4.14187 12.13697 7.00888 14.16992 0.50586 0.24262-7.0294 2.78187-13.33051 1.0293-20.81641-4.20358-5.25893 4.98972-9.06828 0.47461-8.30468 0.0763-0.26002 0.18275-0.50428 0.3125-0.73828-0.0448-0.0161-0.0685-0.022-0.11524-0.0391 0.0474-0.002 0.0915 0.006 0.13868 0.006 1.91016-3.36405 8.9291-4.29226 8.83398-10.02539 1.48538-2.55977 4.28224-4.46372 5.25781-5.99805 4.0577-1.28739 3.84657-8.104562 2.29883-12.447261-5.37061-3.804325-10.39564-8.291658-16.35742-11.28125-6.81792-4.47261-15.20992-7.196616-22.63281-10.826171-9.14871-2.331869-18.70848-4.961482-28.125-5.935547-5.91988-0.582281-14.22707-1.508036-20.3321-1.867108 C 105.04916 60.57818 96.734873 58.815017 99.017578 49.914062 101.14568 41.552569 93.654765 40.484796 87.421875 39.322266 80.940727 39.659893 79.341204 33.610545 77.550781 29.011719 76.194375 25.895278 74.33249 21.554266 70.810547 21.632812 ZM182.94727 118.72656c-0.007 0.0116-0.017 0.0215-0.0234 0.0332 3.07351 1.1064 1.67807-0.0413 0.0234-0.0332zM67.521484 216.69922c-0.0055-0.01-0.0081-0.0234-0.01367-0.0332-0.08729 0.44075-0.0513 0.37337 0.01367 0.0332zM7.5957031 69.660156c0.0099-0.01189 0.019373-0.03364 0.029297-0.04492-0.2381313 0.241084-0.1973839 0.200983-0.029297 0.04492zM38.736328 22.171875c0.01095-0.03271 0.07794-7.8e-5 0.214844 0.126953-0.121114 0.01199-0.11474 0.03196 0.03711 0.06055 0.141031 0.538024-0.286644-0.08387-0.251953-0.1875z m35.984375 1.267578c-0.114477 0.06795 0.130801 0.174897 0 0zM91.525391 48.34375c-1.443969 0.190442 0.287263 0.05262 0 0zM90.109375 60.25c0.03689 0.03622-0.02383 0.325498-0.291016 0.757812 0.119622-0.577199 0.254125-0.794033 0.291016-0.757812z m-0.03516 0.814453c0.362356-0.01708 0.972988 0.125897 1.654297 0.59375l-0.585938 0.05273c-1.588077-0.145741-1.672287-0.618025-1.068359-0.646485z m1.699219 0.527344c0.03499-0.0077 0.09064-0.0073 0.171874 0.0039 0.324726 0.475356-0.416922 0.04983-0.171874-0.0039z m50.597656 8.859375c-0.13839 0.173661 0.46128 0.379906 0 0zM79.666016 85.042969c-0.594196 0.777611-3.975896 3.609725-5.195313 3.574219-3.769487 1.802421-4.45527 1.626047-6.707031 3.845703-3.505185 1.764064-7.500886 2.01204-11.103516 3.224609-1.253523 0.957071-2.408346 2.031529-3.548828 3.125 3.243163-0.38994 7.481204-1.267975 10.900391-3.007812 3.507417-1.173636 5.907534-3.416655 9.330078-4.408204 4.061241-1.451054 8.493833-2.711323 12.798828-2.392578-0.756688-0.661402-1.514604-1.331419-2.115234-2.175781-1.036549-1.725112-0.576581-0.876689 0.191406 0.380859-1.314153 0.04613-3.731146-1.015243-4.550781-2.166015z m97.537104 1.810547c0.16059-0.05401 1.06844 1.634669 0.041 0.373046-0.0755-0.255813-0.078-0.360582-0.041-0.373046z m-4.33398 0.894531c-0.86139 0.590067-2.60917 0.714337-2.95312 1.675781-2.57155-0.637363 3.3343 4.54527-0.006 4.392578 1.32698 0.01498-2.65953 2.036014-3.56446 0.103516-0.0486 0.427618-1.43931 3.821935-0.0371 6.414058 1.09327-1.393468 5.35747-4.73611 6.97071-6.304683 0.28621-0.04139 0.50312-0.08897 0.70312-0.136719 0.44807-0.815503 0.93418-1.295408 1.42774-0.818359-0.83476-0.165776 0.27003 0.413061-1.42774 0.818359-0.63535 1.156375-1.19013 3.008573-1.55078 3.941406-2.52905 2.910886 4.07951 3.671936 3.17969 6.947266 0.61887-0.16942 2.19926-0.39911 3.23047-1.5-0.0821-0.262 3.02827-6.861545 1.26758-9.09375-3.89044-0.25177-3.21436-6.479886-7.24024-6.439453z m-16.33203 0.04297c-0.17418 0.50839 0.11367 0.06669 0 0z m17.94531 0.171875c-0.0167 0.361463 0.27817-0.04619 0 0z m-6.86719 2.220703c-0.17669 0.488973 1.52662-0.05311 0 0z m-82.466792 0.36914c-2.78373-0.04461-6.118785 0.668431-8.31836 1.439454-5.475186 1.082559-9.651056 4.901423-14.949219 6.439453-3.435537 0.881972-7.228911 2.441518-10.695312 2.226558-1.675221 1.60983-3.395188 3.17788-5.396485 4.4375-2.218388 2.99638 0.03561 6.66354 0.201172 10.01758 1.238429 5.50193 4.916268 9.94053 8.265625 14.32813 2.903195 2.01205 5.9462 4.79027 8.416016 5.26953-0.875686-0.24837-1.673629-6.9121-3.767578-9.16602-2.133663-3.06787-3.350443-6.81277-4.902344-10.16797-0.588844-3.83508-0.438667-3.9154 1.582031-6.45898 2.594651-2.98401 7.481741-4.022 11.535157-5.01953 4.670553-1.23922 9.169541-3.04567 13.792968-4.488283 5.736725-1.581201 11.979754-4.085102 17.898438-2.029297 2.745763 1.885948 6.887483 3.82729 5.296873 7.78711 0.71854 0.013 1.43753 0.025 2.15625 0.0527 5.06053 0.27622 10.20116-0.14434 15.21875-1.0332-0.28685-1.87239-0.6884-3.62362-3.0039-4.287108-2.16596-1.902657-4.8208-1.947778-7.54493-1.761719-2.98695 0.0535-5.55452-1.065959-8.46093-1.326172-2.26028-0.112443-4.697131-0.213411-6.902348-1.027344-2.262549-0.900786-4.716845-1.728966-6.519531-3.291015-0.244258-0.601353-0.578467-1.113745-0.960937-1.582032-0.132986-0.0094-0.273973-0.02926-0.404297-0.03516-0.743017-0.208948-1.609209-0.309349-2.537109-0.324219z m102.839842 0.236328c0.4433 0.360263-0.55825 1.369719 0 0zM93.878906 91.72461c2.862098 1.418207 6.254184 1.746709 9.457034 2.017579-1.53175-0.263658-3.05158-0.585861-4.550784-0.982422-1.436473-0.42022-2.65112-0.367999-4.90625-1.035157z m87.798824 0.890625c0.16689-0.01187 0.2467 0.374584-0.0762 0.0332 0.0265-0.02121 0.0523-0.03151 0.0762-0.0332z m-51.14843 0.08398c-0.55484 0.01447-1.1107 0.09956-1.66211 0.267578-4.59183 1.284548-9.40565 1.043784-14.09961 1.5625-3.14184 0.09632-6.27481-0.06211-9.36328-0.472656 2.46016 0.645892 5.01048 0.989012 7.57812 0.832031 2.77227-0.631598 4.84067 0.968127 7.0586 2.085937 2.23321 1.232954 4.67659 3.316715 4.5 6.064455-0.10603 0.21136-0.14755 0.41986-0.16407 0.62696 4.77968-0.83562 9.54892-2.35004 14.20313-3.04102 0.6501-0.873681 3.02674 0.4512 1.23828-1.53516-1.59084-3.102004-5.40521-6.491936-9.28906-6.390625z m46.31836 0.361328c0.32499 0.117767 0.25572 0.907749-0.44727 0.1875 0.18722-0.190775 0.33893-0.226756 0.44727-0.1875z m-2.00977 0.0332c-0.052 0.155558 0.18261-0.04151 0 0z m6.98828 7.279297c-0.62286 0.79198-0.82097 1.77527-0.89844 2.74414 0.0547-0.0592 0.0626-0.003-0.0293 0.3164 0.006-0.10502 0.0208-0.21075 0.0293-0.3164-0.30559 0.33049-2.68273 5.56933-4.95507 5.23437-0.0385 0.097-0.16595 0.0768-0.40625-0.11718 0.13488 0.0627 0.26999 0.0971 0.40625 0.11718 0.25542-0.64273-3.51969-6.6033-6.07227-3.81054 0.26186-0.10812 0.31501-0.0895-0.18359 0.20898 0.0601-0.0777 0.12203-0.14163 0.18359-0.20898-1.05982 0.43757-6.88527 3.74289-6.51953 6.69531 1.11235 2.38251 3.17659 4.28696 4.14648 6.78515-1.21511-2.21355 0.14433 4.744 1.00586 7.0254 0.12198-2.12149 1.26575 0.77826 2.4668 2.54296 0.25648-1.37805 2.57219-3.97767 3.48047-5.46289-0.83907 1.83502 4.1064-3.7429 5.30664-9.77343-0.59161-4.14649 1.83309-7.90713 2.03906-11.98047z m-10.16406 2.02734c-0.38046 0.53753 0.71168 0.0444 0 0z m-40.63867 1.43164c-2.0615 0.53114-4.13798 1.02267-6.23242 1.43945 0.28431 0.61348 0.62964 1.26986 0.81054 2.0586 2.17466-0.71741 4.24293-1.24176 5.42188-3.49805z m39.89844 0.23633c0.1764-0.0447-0.5649 0.69547-0.54493 0.375 0.32489-0.25746 0.48609-0.36011 0.54493-0.375z m-49.16407 1.75c-3.5071 0.57773-7.04757 0.94556-10.60156 1-2.54085 0.27095-5.09244 0.0964-7.64844-0.0332-1.67087 3.68912-7.746319 8.33142-7.669919 8.35937-1.918094 1.89508-4.833824 3.8621-7.488282 5.44141 4.829348-0.67464 9.713065-0.53639 14.591801-0.42578 0.75138-0.45831 1.53942-0.8484 2.30273-1.16993 2.98225-0.59436 4.93034-2.88964 7.4707-4.34375 2.47042-1.12781 4.59052-2.81797 7.04883-3.96289 1.32951-0.14492 3.99965-1.61791 3.60938-0.13281-0.66944 2.312 1.86559 0.39247 0.74218-0.45117-0.33692-0.62417-1.90331-1.84703-2.22265-3.65234-0.0547-0.20543-0.093-0.41808-0.13477-0.62891z m55.4375 0.50586c-0.5123 0.14985 0.31735 0.68559 0 0z m-77.595701 0.36328c-0.552004 0.0126-1.104023 0.0391-1.65625 0.0859-7.109008 0.66029-14.327073-0.33247-21.398437 0.60156-4.586202 1.43039-9.791668 2.388-13.257813 5.92578-2.084931 5.75655 4.130662 7.92124 8.714844 7.64649 2.371277 0.41057 9.076044 0.0982 8.556641 0.14648-0.682836 0.0179 1.628472-0.0121 3.826172-0.12305 6.086678-3.18876 11.581376-7.49987 16.158204-12.60547 0.55367-0.5565 0.9839-1.10809 1.3125-1.65039-0.75158-0.0242-1.50366-0.0444-2.255861-0.0273z m74.906251 1.04492c0.0597 0.0196 0.21492 0.1389 0.51758 0.41992l0.16601 0.48633c-0.17832-0.11987-0.86268-0.96499-0.68359-0.90625z m-50.90234 1.85352c0.0593-0.004 0.11976 0.13173-0.0508 0.0625 0.0107-0.0448 0.031-0.0613 0.0508-0.0625z m2.98046 1.90429c-0.50075 1.32769-2.06084 0.2344-2.75586 1.375-3.20043 0.30733-5.58863 2.62754-8.4082 3.89258-1.85432 0.87972-3.34076 2.34457-5.02344 3.46485 7.10141 0.27338 14.1232 1.44586 21.22266 1.65429 1.11135 0.0712 2.24361 0.1897 3.375 0.3418 1.03578-0.74109 1.9135-1.577 2.2207-2.71094 1.21852-4.07562-2.84173-0.62291-4.95507-1.61133-3.22749-1.0183-2.13224-5.98761-5.67579-6.40625z m113.94727 1.27344c0.0509 0.005 0.1306 0.0306 0.24414 0.084 0.38543 0.83263-0.6005-0.11927-0.24414-0.084z m4.07227 4.36914c0.0119-0.0356 0.0779-0.009 0.24218 0.15039 0.18135 0.62753-0.27791-0.0437-0.24218-0.15039z m-64.10938 1.81055c0.29949 0.0887-1.34753 1.47768-0.26172 0.0527 0.13585-0.0524 0.21894-0.0654 0.26172-0.0527z m-79.60352 2.79297c-3.108521 8e-4-6.217079 0.0243-9.322261 0.043-2.230558 0.31263-4.481025 0.56769-6.740234 0.74804-0.413912 0.21162-0.913293 0.48456-1.244141 0.64063-4.509383 2.4633-9.330187 4.30721-13.720703 6.94336-2.557346 3.56768 6.180093 3.51648 8.542969 4.71289 6.662066 0.94621 13.483532 0.27363 20.126953 1.66992 10.317077 1.90936 20.841497 2.21784 31.179687 3.99414 5.40697 1.02319 11.04058 1.42738 16.33789 2.48633 0.50867 0.004 2.22859-6.16604 2.19727-8.56836-0.35405-5.37769-5.52362-9.20407-10.60938-10.11523-0.83881 0.83249-1.82936 1.52168-2.98633 2-2.26191 2.15094-5.6599 1.46399-8.28711 2.7539-1.68159 1.24007-2.86047 4.57723-5.74023 4.29102-2.50217 1.12693-5.22927 1.76057-7.97852 1.74414-2.39898 0.25653-4.64724-0.4909-6.80273-1.46875-3.19369-1.33834-7.078177-3.6099-6.976562-7.56836 0.03814-1.74498 0.858338-3.162 2.023432-4.30664z m6.03711 0.0566c-2.50009 1.02717-6.22132 2.75748-4.27539 5.92187 1.57228 2.0211 4.21029 2.82793 6.5293 3.70899 2.80904 1.00083 5.80054 0.49508 8.54688-0.43555 3.27205-0.037 4.80024-2.75279 7.05468-4.58789 1.87397-1.84415 4.56532-1.09731 6.73047-1.83203 0.38363-0.31862 0.82205-0.61376 1.27344-0.90625-5.97979-0.62744-12.00094-0.73117-17.9668-1.5918-2.62799-0.15702-5.25989-0.22982-7.89258-0.27734z m92.36329 0.95508c-0.001-0.018-0.0639-0.0206-0.23829 0.0156-0.30024 0.23768 0.24257 0.0383 0.23829-0.0156zM38.068359 140.95312c-1.254919 0.2359 0.321811 0.7923 0 0z m-0.898437 0.58985c-4.184101 1.29771-5.335211 2.79728-1.449219 5.65234 3.908452 3.26566 3.099649-3.19723 1.449219-5.65234z m169.964848 2.49414c-0.0537-0.003-0.17296 0.36663 0.0176 0.16211 0.0104-0.11831 3.3e-4-0.16123-0.0176-0.16211z m9.44335 5.59766c0.01 0.007 0.0217 0.0264 0.0352 0.0625-0.0872 0.42383-0.1043-0.11474-0.0352-0.0625z m-56.23046 10.55859c-1.21232 1.21488 0.28936 0.20285 0 0z m8.83398 0.83203c-0.91543 0.0715-1.67298 1.05977-2.74414 0.9043-0.50374-0.92445-3.49054-0.73638-2.32812-0.60157-1.55249 0.84565-1.35903 1.87154 0.16406 3.05079 2.76086 1.23605 5.32761 3.87213 8.61523 2.67382 1.6251 0.26836 5.31133-1.54666 4.39453-2.61328-3.02531 0.0835-5.41847-2.59542-8.10156-3.41406z m-9.70312 0.58008c-0.49146 1.64676 0.4049 1.74056 0 0z m-53.00391 0.28515c-3.11112 0.46018-8.147136 3.6425-2.91992 6.97852 4.62671 3.11191 9.64745 5.63311 13.80859 9.39453 6.57312 3.56572 12.79596 7.729 19.74805 10.50195-0.12599-1.43409-0.29001-2.84708-0.94727-4.27734-1.45778-6.15963-3.73515-12.45218-7.89062-17.36328-2.11007-3.54041-6.2818-3.9525-9.78906-4.17578-3.61922-1.14408-8.05594-0.42848-12.00977-1.0586z m56.21289 1.26368c-0.0585-0.003-0.18823 0.0161-0.41602 0.0684-2.27607 1.08897 0.82568-0.0472 0.41602-0.0684z m-2.39844 1.00976c0.19102 0.42917 1.16134 0.47529 0 0z m17.61719 0.44922 0.3418 0.2832c1.60983 0.83944 0.72073 0.24741-0.3418-0.2832z m-24.26563 3.0293c-0.1044 0.36393 0.2503 0.0318 0 0z m-70.195308 10.30469c-0.369362 0.73875 1.001492 0.45802 0 0z m0.513672 0.90429c-1.154328 1.12409-2.585991 0.85491-2.605468 2.77735-1.038505 3.84439 2.516519 0.0442 3.662109-1.11524-0.530125-1.39332-0.327924-0.62507-1.056641-1.66211z m117.359376 0.41602c-1.89755 1.49752-3.7064 3.18582-4.12305 5.26562-0.45095 2.39048-1.33098 3.90301-2.52343 5.37891 0.566-0.37447 1.13998-0.76887 1.73437-1.21289 3.14274-2.27184 3.67155-6.04503 4.91211-9.43164z m-47.4375 0.084c-0.18906 0.59198 0.25287 0.1308 0 0z m-68.875001 10.65039c-0.465498 0.26078 0.339045 0.45111 0 0z m53.457031 0.69727c-0.014 0.29147-0.0248 0.57981-0.0644 0.90625 1.01416 2.05466 1.10951 3.47585 3.0625 5.13281 3.52245 3.04507 8.2403 5.79297 13.10156 4.38477 2.51589-0.13577 4.8902-0.86944 7.23047-1.75-8.04968-1.813-16.18321-3.85038-23.04688-8.54883-0.0947-0.0406-0.18858-0.0842-0.2832-0.125z m51.49805 3.06836c-2.13236 0.99907-4.34637 1.75117-6.75977 1.83203-5.94241 0.64885-11.84213 1.42507-17.47656 3.38086 2.35079 0.42511 5.1927 0.95855 7.63281 1.92578 3.5794 0.95788 7.58442-1.40049 10.54492-3.13672 2.38943-0.80804 4.33442-2.26728 6.0586-4.00195z m-58.25196 4.44336c-0.06 0.13888 0.33905 0.30918 0 0z m0.15821 3.54883c2.12181 2.27444 3.18274 1.7324 0 0z m4.25976 2.52734c0.95374 0.57768 1.82407 1.27633 2.70117 1.96094 4.12944 0.68792 7.65489 5.9857 11.66797 3.80273-4.58745-2.23747-9.44227-4.18075-14.36914-5.76367z m-40.593747 2.62695c-0.136676 0.0147-0.269426 0.0471-0.394531 0.10156-4.691913 2.54156 2.85395 5.53538 5.595708 7.17774 2.6552 0.38473 11.10495 7.38831 9.27929 1.99219 0.79424-6.14012-8.73008-3.95057-10.033201-8.66211 0.326611 2.49823-2.544127-0.81431-4.447266-0.60938z m66.945317 0.27149c-0.55118 0.91652-1.39698 1.71238-2.45899 1.98437-5.03385 0.1249 0.55423 1.24681 2.44531 1.69922 3.68906 0.12727 8.43121 2.99323 10.05469 4.45313 3.8069 0.74836 6.67727-3.31286 5.93555-5.60547-5.30557-1.43292-10.90163-0.18399-15.97656-2.53125z m-49.23243 15.57617c-0.0674 0.76112-0.11816 1.52442-0.0977 2.28906 0.13769-0.22908 0.4201 1.9758 1.72265 2.70899 5.30897 2.43139 10.57174 4.04286 16.06641 2.10937 3.82895 0.3261 4.28714-2.52199 0.19141-2.66992-5.79327-2.1204-12.04031-2.52669-17.88282-4.4375z m-14.867184 0.3125c-1.218322 0.0293-0.359841 1.22349 0.308594 2.00586 0.137261-0.25456 3.04511 0.20041 2.90234-0.64649-0.76996-1.39877 0.1031-0.62762-1.39843-1.33007l-0.539066 0.0293-0.564453 0.0156c-0.289302-0.0557-0.523768-0.0787-0.708985-0.0742z m-1.177734 0.39062c-0.229422-0.0281 0.227693 0.22984 0 0zM201.11523 238.6543c-0.4504 0.37041-1.01074 0.57129-1.52343 0.83203-3.42628 2.01205-5.92414 7.5795-10.69727 8.47461-4.5012 2.35572-9.3431-4.82644-10.66015-0.12891-0.40989 4.82839-3.43278 11.50312 1.28515 14.5 2.92049 5.47963 9.0809 3.3596 13.6582 1.2207 3.87678-1.80546 9.44205 0.4999 11.13868-3.44921 2.72766-2.61975 4.11529-8.33365-1.29102-9.91407-4.81834-0.61691-8.2908-7.8033-1.52344-8.8164 3.77196-0.42299 1.57482-1.72374-0.38672-2.71875z m-109.24023 1.85742 0.132812 0.34375c0.425452 1.47888 0.363598 0.15285-0.132812-0.34375z m14.44336 4.875c-0.35225 0.14552-0.74788 0.13806-1.11328 0.0527 0.44358 1.3263-0.75156 2.8997-2.1211 1.97461-1.5208-1.49139-2.0198 2.05877-2.64062 3.1875 0.66676 1.47308-1.083775 3.6085 0.79297 4.30274 1.30146 2.38545 3.71998 0.37804 5.86914 1.23437 2.23728 0.55738 4.99495 0.58052 7.32031-0.0937 3.08625-0.0776 6.17373 0.015 9.25977-0.0762 1.80586 0.12945 3.73251 0.26042 5.40039 0.94141 2.10787 0.77525 3.21093-0.75665 4.34765-2.20313 0.14237-0.10333 0.20835-0.1774 0.29883-0.26172-0.10251-0.23223-0.15453-0.47982-0.1582-0.72851-0.61782-0.10092-1.67482-0.001-2.18164-0.0117-1.9978 0.46584-3.81881-0.77468-5.79883-0.41797-1.74717 0.26457-3.25392-1.21319-4.88086-1.78906-1.61199-0.93232-2.60739-2.69115-4.65625-2.60547-1.88691-0.5287-4.45204 0.13883-6.30859-1.24805 1.20575 0.27633-0.47472-0.50683-0.76953-0.63672-0.34364-0.30616-1.57543-0.91567-2.66016-1.62109z m-4.33398 1.25976c-0.68943 0.7855 0.37521 0.33378 0 0z m-2.212896 3.36133c-0.260939 0.0615 1.247576 0.63338 0.232426 0.01-0.122037-0.017-0.195149-0.0186-0.232426-0.01z m37.509766 4.86328c-0.0417 0.0929-0.0803 0.18747-0.13086 0.27735 0.0203 0.0664 0.0197 0.13502 0.0117 0.20508 0.0478-0.10292 0.0881-0.21565 0.10937-0.35157 7.2e-4-0.0513 0.007-0.0856 0.01-0.13086z m-0.64063 1.31055c-0.11491 0.11171-0.23096 0.21295-0.34765 0.30664 0.0166 0.0628-0.0176 0.0617-0.0625 0.0449-0.4064 0.31625-0.72666 0.49634-0.34375 0.28907-1.01848 0.50267-1.36123 1.70902-1.64844 2.36523-2.10939 1.31904-4.64629 1.28447-6.95508 0.5293-3.21807-0.91564-6.56043-0.2645-9.84179-0.4961-2.52066-0.1742-4.88031 0.78307-7.38282 0.49219-2.23177 0.56349-4.55293-1.43771-6.51171 0.006-0.61057 0.17193-1.13936 0.12397-1.61719-0.0566 0.43572 0.63274 0.99951 1.95635 0.60156 1.91016-0.70707 1.05202 2.62241 0.10509 3.56836 0.36718 2.60156-0.30719 4.87122 1.7761 7.46875 0.76367 2.58094-1.2421 5.5323-0.80075 8.1875-0.0527 1.99283 0.75501 4.067 1.10411 6.11523 0.28516 2.43491 0.25179 4.58094-1.27326 6.99414-1.39453 2.98216-0.53426 4.42607 2.85239 7.05469 3.5 0.7697-1.1212 2.64166-1.68623 4.19531-0.78321 1.62978 2.22759 2.69218-0.35654 3.25196-2.06836 0.61922-1.45637-1.21189-4.78927-2.42774-3.80468-2.29191 0.43381-2.81567-2.3451-5.05664-1.11133-1.99734 1.10039-3.42839-0.94377-5.24219-1.0918z m5.54493 7.66992c0.13412 0.0112 0.2612 0.10015 0.35547 0.31446l-0.31446 0.10742c-1.32854 0.94564-0.6222-0.47041-0.041-0.42188z m-40.33985 1.32422c1.33764 0.12204-0.44075 0.11075 0 0z"/>
    <path d="m25676 75538c-3-7-7-26-11-43-11-52-20-56-104-49-106 9-116-1-107-107 7-87 3-94-60-107l-39-8-3-177-2-177 29 0c54 0 78-16 88-56 7-32 14-39 43-47 19-5 38-14 42-20 4-7 5-48 1-93l-6-81 48-5c58-7 66-15 72-72l6-46 323 0c280 0 325 2 338 16 14 13 16 54 16 290l0 274-29 0c-54 0-78 16-88 56-7 32-14 39-43 47-19 5-38 14-42 20-3 6-4 67-1 137 8 169 12 165-159 157-141-6-142-6-156 59l-8 39-72 3c-52 2-73-1-76-10z"/>
    <path d="m27877 75544c-4-4-7-17-7-28 0-12-6-32-13-46-13-25-14-25-147-25l-134 0-8-40c-5-22-13-44-19-50-6-6-66-10-142-10l-131 0-8-40c-5-22-13-44-19-50-6-5-47-10-92-10l-81 0-8-39c-14-65-16-66-147-59l-118 6-24-34c-20-28-24-44-22-96 2-69-4-78-63-91l-39-8 0-81c0-45-5-86-10-92-6-6-28-14-50-19l-40-8 0-74 0-74 39-8c63-13 67-20 60-109-5-57-3-83 6-94 10-13 48-15 237-15 170 0 224 3 227 13 2 6 8 30 12 51 8 33 15 41 43 51 26 8 38 20 46 46 14 40 39 45 43 9 8-77-7-71 184-68l171 3 12 48c7 26 15 51 19 54 14 14 87 8 96-7 6-8 7-49 4-91-9-110-12-109 196-109 141 0 171 3 185 16 13 13 15 37 13 136l-3 121-48 12c-26 7-51 15-54 19-13 13-8 87 7 96 7 4 70 6 140 3 169-8 165-12 157 159-6 141-6 142 59 156l39 8 0 174 0 174-44 8c-55 9-60 14-69 69l-8 44-220 3c-121 1-223-1-227-4z"/>
    <path d="m22894 75316c-9-24 4-48 23-44 12 2 18 12 18 28 0 29-32 41-41 16z"/>
    <path d="m23676 75321c-14-22 23-59 45-45 13 8 11 21-7 38-17 18-30 20-38 7z"/>
    <path d="m22166 75234c-13-12-16-40-16-134 0-154-4-150 150-150 154 0 150-4 150 150 0 154 4 150-150 150-94 0-122-3-134-16z"/>
    <path d="m28977 74443c-4-3-7-16-7-27 0-12-6-32-13-46-12-24-17-25-97-25l-84 0-8-40c-5-22-13-44-19-50-6-5-47-10-92-10l-81 0-8-40c-5-22-13-44-19-50-6-5-47-10-92-10l-81 0-8-39c-13-63-20-67-107-60-108 9-111 6-111-146 0-94 3-122 16-134 13-14 58-16 334-16 379 0 356-7 346 111-5 58-3 80 6 86 7 4 49 8 93 8l79 0 8 44c9 55 14 60 69 69l44 8 3 173c2 119-1 178-9 187-12 15-149 21-162 7z"/>
    <path d="m26276 74338c-3-7-7-26-11-43-11-52-20-56-104-49-113 10-111 13-111-200 0-136 3-176 14-185 9-8 68-11 187-9l173 3 8 39c13 63 20 67 107 60 113-10 111-13 111 200 0 120-4 176-12 184-17 17-357 17-362 0z"/>
    <path d="m25578 73918c-18-27-23-46-23-100 0-74 2-69-43-92-20-10-38-29-44-46-6-18-27-39-54-55-24-14-48-34-54-45-6-11-10-115-10-259 0-204 2-242 16-255 20-21 252-24 258-3 2 6 8 30 12 52 8 35 14 41 48 50 34 10 41 17 51 50 9 34 16 41 50 50 33 10 40 17 50 51 9 34 15 40 50 48 22 4 46 10 54 12 11 4 13 20 7 83-7 89-3 96 60 109l39 8 3 126 3 125-47 6c-56 6-62 12-72 68l-8 44-161 3-161 2-24-32z"/>
    <path d="m26976 73938c-2-7-8-31-12-53-8-35-14-41-48-50-34-10-41-17-51-50-9-34-16-41-50-50-33-10-40-17-50-51-9-34-15-40-50-48-22-4-46-10-54-12-11-4-13-20-7-83 8-100 4-103-97-95-84 8-78 12-93-61-8-35-13-41-49-51-34-9-41-16-48-47-10-42-6-41-111-41l-80-1-8-39c-13-63-20-67-109-60-63 6-79 4-83-7-2-8-8-32-12-54-8-35-14-41-48-50-34-10-41-17-51-51-9-34-15-40-50-48-22-4-46-10-54-12-11-4-13-20-7-84 5-58 3-81-6-87-7-4-71-8-142-8l-130 0-8-40c-5-22-13-44-19-50-6-5-47-10-92-10l-81 0-8-39c-14-65-15-65-156-59-168 8-164 12-160-150l3-121 40-8c22-5 44-13 50-19 6-6 9-92 6-238-3-202-1-229 14-244 14-15 44-17 236-17 167 0 220 3 223 13 2 6 8 30 12 52 8 35 14 41 48 50 34 10 41 17 51 50 9 34 16 41 50 50 33 10 40 17 50 50 9 34 16 41 50 50 33 10 40 17 50 50 9 34 16 41 50 51 34 9 41 16 48 47 5 21 14 37 20 38 7 1 138 2 292 3l279 1 8 40c5 22 13 44 19 50 6 5 47 10 92 10l81 0 8 44c4 24 10 46 13 49 2 3 26 10 52 17l48 12 0 73 0 73-48 12c-26 7-50 14-52 17-3 3-9 25-13 49l-8 44-79 1c-105 0-102 0-110 32-10 47 8 78 51 89 32 7 39 14 47 43 5 19 14 38 20 42 6 3 68 4 139 1 104-5 128-3 132 8 2 8 8 32 12 54 8 35 13 41 49 51 34 9 41 16 48 47 5 21 14 38 20 38 7 1 115 2 242 3l229 1 8 39c13 63 20 67 107 60 109-9 111-6 111 147 0 87-3 121-12 123-7 2-31 8-53 12-35 8-41 14-50 48-10 34-17 41-50 51-34 9-41 16-51 50-9 33-16 41-45 48-19 5-37 14-41 20-4 7-5 46-2 88 10 113 19 109-247 109-167 0-220-3-223-12z"/>
    <path d="m28062 73638c-7-7-12-42-12-88 0-46 5-81 12-88 7-7 42-12 88-12 46 0 81 5 88 12 7 7 12 42 12 88 0 46-5 81-12 88-7 7-42 12-88 12-46 0-81-5-88-12z"/>
    <path d="m25876 73221c-14-22 23-59 45-45 13 8 11 21-7 38-17 18-30 20-38 7z"/>
    <path d="m25776 73121c-14-22 23-59 45-45 13 8 11 21-7 38-17 18-30 20-38 7z"/>
    <path d="m25676 73021c-14-22 23-59 45-45 13 8 11 21-7 38-17 18-30 20-38 7z"/>
    <path d="m12974 71195c-4-9-2-21 4-27 16-16 47-5 47 17 0 26-42 34-51 10z"/>
    <path d="m23464 69316c-9-24 4-48 23-44 12 2 18 12 18 28 0 29-32 41-41 16z"/>
    <path d="m39660 63235c-19-22-8-120 17-153 17-24 28-27 82-30 38-2 68 2 77 9 18 15 20 159 2 177-18 18-162 16-178-3z"/>
    <path d="m50974 59695c-4-9-2-21 4-27 16-16 47-5 47 17 0 26-42 34-51 10z"/>
    <path d="m52074 59395c-4-9-2-21 4-27 16-16 47-5 47 17 0 26-42 34-51 10z"/>
    <path d="m56564 56316c-9-24 4-48 23-44 12 2 18 12 18 28 0 29-32 41-41 16z"/>
    <path d="m60264 53616c-9-24 4-48 23-44 12 2 18 12 18 28 0 29-32 41-41 16z"/>
    <path d="m0 52251 0-101 64 0c80 0 90 10 84 85-7 81-31 109-97 113l-51 3 0-100z"/>
    <path d="m71865 50233c-16-15-17-36-13-195 3-97 2-181-1-187-10-16-55-23-83-12-18 7-28 20-35 47-7 32-14 39-48 48-36 10-41 16-49 51-4 22-10 46-12 53-3 10-43 12-176 10l-172-3-8-39c-14-65-13-64-173-58-171 6-195 0-218-60-17-43-44-48-39-7 2 13 6 72 9 130 7 142 9 140-150 137l-121-3-8-44c-9-55-14-60-69-69l-44-8 0-231c0-142-4-236-10-242-6-6-28-14-50-19l-40-8 0-174 0-174 39-8c60-13 64-19 64-118 0-99-4-105-64-118l-39-8 0-174 0-174 44-8c55-9 60-14 69-69l8-44 129 0c72 0 136-4 143-8 9-6 10-30 6-93l-7-84 31 0c55 0 79-15 89-56 7-32 14-39 48-48 34-10 41-17 51-51 9-33 16-41 45-48 19-5 37-14 41-20 4-7 5-46 2-88-9-106-5-109 146-109 156 0 151-5 148 153l-3 121-39 8c-63 13-67 20-60 109 6 63 4 79-7 83-8 2-33 9-55 15-45 12-57 33-47 82 4 23 14 31 44 41 30 8 41 18 45 37 10 46 14 53 27 49 6-3 13-15 15-29 8-75-6-69 181-69 145 0 172 2 186 17 15 14 16 46 14 299-2 156-1 285 1 288 3 2 20 8 39 13 29 7 36 15 45 48 10 35 16 41 51 49 22 4 46 10 54 12 11 4 13 20 7 83-7 89-3 96 60 109l39 8 1 130c0 71 1 134 2 141 1 6 19 15 39 20 31 7 38 14 46 43 5 19 14 38 20 42 6 4 64 4 129 1l118-6 0 196c0 186-1 197-19 197-25 0-39 19-49 66l-8 39-171 3c-151 2-173 0-188-15z m-1000-1534c0-32-4-44-15-44-16 0-26 54-16 82 12 30 31 6 31-38z"/>
    <path d="m59864 49816c-9-24 4-48 23-44 12 2 18 12 18 28 0 29-32 41-41 16z"/>
    <path d="m59764 48916c-9-24 4-48 23-44 12 2 18 12 18 28 0 29-32 41-41 16z"/>
    <path d="m59874 48695c-4-9-2-21 4-27 16-16 47-5 47 17 0 26-42 34-51 10z"/>
    <path d="m70366 48335c-13-14-16-44-16-189 0-120 4-176 12-184 8-8 64-12 184-12 144 0 175 3 188 16 13 12 16 40 16 138l0 123-46 6c-56 6-62 12-72 68l-8 44-121 3c-100 2-124 0-137-13z"/>
    <path d="m1194 46516c-9-24 4-48 23-44 24 4 24 52 0 56-9 2-20-4-23-12z"/>
    <path d="m65976 46438c-2-7-9-32-15-55-10-36-16-42-48-50-32-7-39-14-46-46-5-20-14-38-20-39-7-1-70-2-142-2l-129-1-8-44c-9-55-14-60-69-69l-44-8 0-224 0-224 44-8c55-9 60-14 69-69l8-44 81 0c45 0 86-5 92-10 6-6 14-28 19-50l8-40 86 0c47 0 89-3 92-6 4-3 10-26 14-50l8-44 123-3c84-2 128 1 137 9 11 9 14 32 12 88l-3 75-40 8c-22 5-44 13-49 18-5 5-8 186-7 440 2 323-1 435-10 446-15 19-158 20-163 2z"/>
    <path d="m66766 45834c-13-12-16-40-16-134 0-94 3-122 16-134 12-13 40-16 134-16 94 0 122 3 134 16 13 12 16 40 16 134 0 94-3 122-16 134-12 13-40 16-134 16-94 0-122-3-134-16z"/>
    <path d="m64374 40595c-4-9-2-21 4-27 16-16 47-5 47 17 0 26-42 34-51 10z"/>
    <path d="m58664 37216c-9-24 4-48 23-44 12 2 18 12 18 28 0 29-32 41-41 16z"/>
    <path d="m58464 36316c-9-24 4-48 23-44 12 2 18 12 18 28 0 29-32 41-41 16z"/>
    <path d="m62776 21824c-11-10-16-34-16-74 0-77 13-90 90-90 77 0 90 13 90 90 0 77-13 90-90 90-40 0-64-5-74-16z"/>
    <path d="m18794 21616c-9-24 4-48 23-44 12 2 18 12 18 28 0 29-32 41-41 16z"/>
    <path d="m61164 7116c-9-24 4-48 23-44 12 2 18 12 18 28 0 29-32 41-41 16z"/>
    <path d="m62060 5635c-19-22-8-120 17-153 17-24 28-27 82-30 38-2 68 2 77 9 18 15 20 159 2 177-18 18-162 16-178-3z"/>
  </g>
  <g transform="translate(36.817305 -0.00861274)"/>
</svg>
